WEMIXPretendardJP.glyphspackage
{
color = 11;
glyphname = iconArrowLongLeft.medium;
layers = (
{
layerId = "CD0E3B44-F66A-4791-B84C-A1128DC61275";
metricWidth = "=baseSymbol.medium";
shapes = (
{
closed = 1;
nodes = (
(1391,30,o),
(1475,30,o),
(1523,78,cs),
(1575,130,o),
(1578,211,o),
(1523,265,cs),
(893,896,l),
(3038,896,ls),
(3110,896,o),
(3171,953,o),
(3171,1026,cs),
(3171,1098,o),
(3110,1155,o),
(3038,1155,cs),
(893,1155,l),
(1523,1786,ls),
(1578,1840,o),
(1575,1922,o),
(1523,1973,cs),
(1472,2024,o),
(1388,2021,o),
(1339,1973,cs),
(486,1116,ls),
(462,1092,o),
(449,1059,o),
(449,1026,cs),
(449,992,o),
(462,959,o),
(486,935,cs),
(1342,78,ls)
);
}
);
userData = {
RMXScaler = {
height = 125;
verticalShift = -85;
width = 125;
};
};
width = 3620;
},
{
layerId = "B1F27B51-9973-4381-9301-4FE46FE1CA59";
metricWidth = "=baseSymbol.medium";
shapes = (
{
closed = 1;
nodes = (
(1415,108,o),
(1451,108,o),
(1477,131,cs),
(1507,158,o),
(1493,200,o),
(1477,216,cs),
(727,963,l),
(3041,963,ls),
(3072,963,o),
(3100,991,o),
(3100,1026,cs),
(3100,1060,o),
(3072,1088,o),
(3041,1088,cs),
(727,1088,l),
(1477,1835,ls),
(1500,1858,o),
(1500,1898,o),
(1477,1921,cs),
(1444,1951,o),
(1409,1937,o),
(1392,1921,cs),
(538,1067,ls),
(525,1054,o),
(520,1038,o),
(520,1026,cs),
(520,1014,o),
(525,998,o),
(538,984,cs),
(1392,131,ls)
);
}
);
userData = {
RMXScaler = {
height = 125;
verticalShift = -85;
width = 125;
};
};
width = 3620;
},
{
layerId = "5C20EF92-B63D-42A8-8878-93C2863E0093";
metricWidth = "=baseSymbol.medium";
shapes = (
{
closed = 1;
nodes = (
(1369,-50,o),
(1497,-53,o),
(1578,27,cs),
(1661,111,o),
(1655,239,o),
(1578,317,cs),
(1073,823,l),
(3041,823,ls),
(3152,823,o),
(3245,915,o),
(3245,1026,cs),
(3245,1136,o),
(3152,1229,o),
(3041,1229,cs),
(1070,1229,l),
(1578,1735,ls),
(1658,1815,o),
(1658,1944,o),
(1578,2024,cs),
(1501,2102,o),
(1372,2105,o),
(1291,2024,cs),
(437,1167,ls),
(403,1134,o),
(379,1085,o),
(379,1026,cs),
(379,966,o),
(403,917,o),
(437,884,cs),
(1291,27,ls)
);
}
);
userData = {
RMXScaler = {
height = 125;
verticalShift = -85;
width = 125;
};
};
width = 3620;
}
);
unicode = 1024029;
userData = {
RMXScaler = {
source = logoWepublic.small;
};
};
}
{
color = 11;
glyphname = iconExchangeRate.medium;
layers = (
{
layerId = "CD0E3B44-F66A-4791-B84C-A1128DC61275";
metricWidth = "=baseSymbol.medium";
shapes = (
{
closed = 1;
nodes = (
(2643,-483,o),
(3318,193,o),
(3318,1026,cs),
(3318,1858,o),
(2643,2534,o),
(1810,2534,cs),
(977,2534,o),
(302,1858,o),
(302,1026,cs),
(302,193,o),
(977,-483,o),
(1810,-483,cs)
);
},
{
closed = 1;
nodes = (
(1122,-220,o),
(564,338,o),
(564,1026,cs),
(564,1713,o),
(1122,2272,o),
(1810,2272,cs),
(2498,2272,o),
(3056,1713,o),
(3056,1026,cs),
(3056,338,o),
(2498,-220,o),
(1810,-220,cs)
);
},
{
closed = 1;
nodes = (
(1514,187,o),
(1575,184,o),
(1617,226,cs),
(1656,265,o),
(1662,326,o),
(1617,371,cs),
(1342,649,l),
(1617,926,ls),
(1656,965,o),
(1662,1029,o),
(1617,1071,cs),
(1578,1110,o),
(1514,1110,o),
(1475,1071,cs),
(1125,721,ls),
(1083,679,o),
(1083,618,o),
(1125,576,cs),
(1475,226,ls)
);
},
{
closed = 1;
nodes = (
(2422,546,ls),
(2483,546,o),
(2528,591,o),
(2528,649,cs),
(2528,706,o),
(2483,751,o),
(2422,751,cs),
(1309,751,ls),
(1252,751,o),
(1207,706,o),
(1207,649,cs),
(1207,591,o),
(1252,546,o),
(1309,546,cs)
);
},
{
closed = 1;
nodes = (
(2311,1300,ls),
(2368,1300,o),
(2413,1345,o),
(2413,1403,cs),
(2413,1460,o),
(2368,1505,o),
(2311,1505,cs),
(1198,1505,ls),
(1137,1505,o),
(1095,1460,o),
(1095,1403,cs),
(1095,1345,o),
(1137,1300,o),
(1198,1300,cs)
);
},
{
closed = 1;
nodes = (
(2042,941,o),
(2106,941,o),
(2145,980,cs),
(2495,1330,ls),
(2537,1373,o),
(2537,1433,o),
(2495,1475,cs),
(2145,1825,ls),
(2106,1864,o),
(2045,1867,o),
(2003,1825,cs),
(1964,1786,o),
(1958,1726,o),
(2003,1680,cs),
(2281,1403,l),
(2003,1125,ls),
(1964,1086,o),
(1958,1023,o),
(2003,980,cs)
);
}
);
userData = {
RMXScaler = {
height = 125;
verticalShift = -85;
width = 125;
};
};
width = 3620;
},
{
layerId = "B1F27B51-9973-4381-9301-4FE46FE1CA59";
metricWidth = "=baseSymbol.medium";
shapes = (
{
closed = 1;
nodes = (
(2643,-483,o),
(3318,193,o),
(3318,1026,cs),
(3318,1858,o),
(2643,2534,o),
(1810,2534,cs),
(977,2534,o),
(302,1858,o),
(302,1026,cs),
(302,193,o),
(977,-483,o),
(1810,-483,cs)
);
},
{
closed = 1;
nodes = (
(1045,-361,o),
(423,261,o),
(423,1026,cs),
(423,1791,o),
(1045,2412,o),
(1810,2412,cs),
(2575,2412,o),
(3197,1791,o),
(3197,1026,cs),
(3197,261,o),
(2575,-361,o),
(1810,-361,cs)
);
},
{
closed = 1;
nodes = (
(1524,187,o),
(1564,187,o),
(1592,215,cs),
(1617,240,o),
(1624,280,o),
(1592,312,cs),
(1258,649,l),
(1592,985,ls),
(1624,1018,o),
(1613,1060,o),
(1592,1082,cs),
(1564,1110,o),
(1521,1106,o),
(1496,1082,cs),
(1114,697,ls),
(1086,668,o),
(1086,629,o),
(1114,600,cs),
(1496,215,ls)
);
},
{
closed = 1;
nodes = (
(2458,581,ls),
(2497,581,o),
(2525,612,o),
(2525,649,cs),
(2525,685,o),
(2497,716,o),
(2458,716,cs),
(1274,716,ls),
(1238,716,o),
(1207,685,o),
(1207,649,cs),
(1207,612,o),
(1238,581,o),
(1274,581,cs)
);
},
{
closed = 1;
nodes = (
(2346,1335,ls),
(2382,1335,o),
(2413,1367,o),
(2413,1403,cs),
(2413,1439,o),
(2382,1470,o),
(2346,1470,cs),
(1162,1470,ls),
(1123,1470,o),
(1095,1439,o),
(1095,1403,cs),
(1095,1367,o),
(1123,1335,o),
(1162,1335,cs)
);
},
{
closed = 1;
nodes = (
(2056,941,o),
(2099,945,o),
(2124,969,cs),
(2506,1354,ls),
(2534,1384,o),
(2534,1422,o),
(2506,1451,cs),
(2124,1836,ls),
(2096,1864,o),
(2056,1864,o),
(2028,1836,cs),
(2003,1811,o),
(1996,1772,o),
(2028,1741,cs),
(2362,1403,l),
(2028,1066,ls),
(1996,1034,o),
(2007,992,o),
(2028,969,cs)
);
}
);
userData = {
RMXScaler = {
height = 125;
verticalShift = -85;
width = 125;
};
};
width = 3620;
},
{
layerId = "5C20EF92-B63D-42A8-8878-93C2863E0093";
metricWidth = "=baseSymbol.medium";
shapes = (
{
closed = 1;
nodes = (
(2643,-483,o),
(3318,193,o),
(3318,1026,cs),
(3318,1858,o),
(2643,2534,o),
(1810,2534,cs),
(977,2534,o),
(302,1858,o),
(302,1026,cs),
(302,193,o),
(977,-483,o),
(1810,-483,cs)
);
},
{
closed = 1;
nodes = (
(1200,-75,o),
(709,415,o),
(709,1026,cs),
(709,1636,o),
(1200,2127,o),
(1810,2127,cs),
(2420,2127,o),
(2911,1636,o),
(2911,1026,cs),
(2911,415,o),
(2420,-75,o),
(1810,-75,cs)
);
},
{
closed = 1;
nodes = (
(1508,184,o),
(1594,184,o),
(1649,239,cs),
(1707,301,o),
(1697,383,o),
(1649,432,cs),
(1436,649,l),
(1649,865,ls),
(1701,917,o),
(1701,1003,o),
(1649,1058,cs),
(1597,1110,o),
(1511,1116,o),
(1453,1058,cs),
(1141,747,ls),
(1086,692,o),
(1086,605,o),
(1141,550,cs),
(1453,239,ls)
);
},
{
closed = 1;
nodes = (
(2393,511,ls),
(2470,511,o),
(2531,572,o),
(2531,649,cs),
(2531,728,o),
(2470,789,o),
(2393,789,cs),
(1350,789,ls),
(1274,789,o),
(1213,728,o),
(1213,649,cs),
(1213,572,o),
(1274,511,o),
(1350,511,cs)
);
},
{
closed = 1;
nodes = (
(2270,1265,ls),
(2346,1265,o),
(2407,1326,o),
(2407,1403,cs),
(2407,1482,o),
(2346,1544,o),
(2270,1544,cs),
(1227,1544,ls),
(1150,1544,o),
(1089,1482,o),
(1089,1403,cs),
(1089,1326,o),
(1150,1265,o),
(1227,1265,cs)
);
},
{
closed = 1;
nodes = (
(2023,941,o),
(2109,935,o),
(2167,993,cs),
(2479,1304,ls),
(2534,1360,o),
(2534,1446,o),
(2479,1501,cs),
(2167,1812,ls),
(2112,1867,o),
(2026,1867,o),
(1971,1812,cs),
(1913,1751,o),
(1923,1668,o),
(1971,1619,cs),
(2184,1403,l),
(1971,1187,ls),
(1919,1134,o),
(1919,1049,o),
(1971,993,cs)
);
}
);
userData = {
RMXScaler = {
height = 125;
verticalShift = -85;
width = 125;
};
};
width = 3620;
}
);
unicode = 1024045;
userData = {
RMXScaler = {
source = iconExchangeRate.small;
};
};
}
{
color = 11;
glyphname = iconExternal.medium;
layers = (
{
layerId = "CD0E3B44-F66A-4791-B84C-A1128DC61275";
metricWidth = "=baseSymbol.medium";
shapes = (
{
closed = 1;
nodes = (
(2775,-462,ls),
(2896,-462,o),
(2999,-362,o),
(2999,-241,cs),
(2999,1044,ls),
(2999,1116,o),
(2938,1173,o),
(2866,1173,cs),
(2796,1173,o),
(2736,1116,o),
(2736,1044,cs),
(2736,-196,ls),
(2736,-199,o),
(2733,-202,o),
(2733,-202,cs),
(588,-202,ls),
(585,-202,o),
(585,-199,o),
(585,-196,cs),
(585,1946,ls),
(585,1949,o),
(585,1952,o),
(588,1952,cs),
(1828,1952,ls),
(1901,1952,o),
(1961,2009,o),
(1961,2082,cs),
(1961,2154,o),
(1901,2211,o),
(1828,2211,cs),
(543,2211,ls),
(422,2211,o),
(323,2112,o),
(323,1991,cs),
(323,-241,ls),
(323,-362,o),
(422,-462,o),
(543,-462,cs)
);
},
{
closed = 1;
nodes = (
(1605,733,o),
(1686,730,o),
(1741,784,cs),
(2977,2021,l),
(2977,1523,ls),
(2977,1451,o),
(3038,1394,o),
(3107,1394,cs),
(3180,1394,o),
(3240,1451,o),
(3240,1523,cs),
(3240,2338,ls),
(3240,2365,o),
(3231,2398,o),
(3201,2428,cs),
(3171,2459,o),
(3137,2468,o),
(3107,2468,cs),
(2293,2468,ls),
(2223,2468,o),
(2163,2410,o),
(2163,2338,cs),
(2163,2266,o),
(2223,2208,o),
(2293,2208,cs),
(2793,2208,l),
(1554,965,ls),
(1502,914,o),
(1505,833,o),
(1554,784,cs)
);
}
);
userData = {
RMXScaler = {
height = 125;
verticalShift = -85;
width = 125;
};
};
width = 3620;
},
{
layerId = "B1F27B51-9973-4381-9301-4FE46FE1CA59";
metricWidth = "=baseSymbol.medium";
shapes = (
{
closed = 1;
nodes = (
(2775,-394,ls),
(2858,-394,o),
(2925,-323,o),
(2925,-241,cs),
(2925,1177,ls),
(2925,1212,o),
(2896,1237,o),
(2866,1237,cs),
(2832,1237,o),
(2803,1212,o),
(2803,1177,cs),
(2803,-252,ls),
(2803,-262,o),
(2793,-269,o),
(2786,-269,cs),
(528,-269,ls),
(522,-269,o),
(512,-262,o),
(512,-252,cs),
(512,2002,ls),
(512,2012,o),
(522,2019,o),
(528,2019,cs),
(1959,2019,ls),
(1992,2019,o),
(2021,2047,o),
(2021,2082,cs),
(2021,2116,o),
(1992,2144,o),
(1959,2144,cs),
(543,2144,ls),
(458,2144,o),
(390,2072,o),
(390,1991,cs),
(390,-241,ls),
(390,-323,o),
(458,-394,o),
(543,-394,cs)
);
},
{
closed = 1;
nodes = (
(1623,810,o),
(1662,810,o),
(1684,834,cs),
(3045,2193,l),
(3045,1523,ls),
(3045,1489,o),
(3073,1461,o),
(3107,1461,cs),
(3137,1461,o),
(3167,1489,o),
(3167,1523,cs),
(3167,2338,ls),
(3167,2347,o),
(3165,2363,o),
(3148,2382,cs),
(3135,2398,o),
(3109,2400,o),
(3107,2400,cs),
(2293,2400,ls),
(2258,2400,o),
(2230,2372,o),
(2230,2338,cs),
(2230,2304,o),
(2258,2276,o),
(2293,2276,cs),
(2959,2276,l),
(1600,916,ls),
(1577,893,o),
(1576,857,o),
(1600,834,cs)
);
}
);
userData = {
RMXScaler = {
height = 125;
verticalShift = -85;
width = 125;
};
};
width = 3620;
},
{
layerId = "5C20EF92-B63D-42A8-8878-93C2863E0093";
metricWidth = "=baseSymbol.medium";
shapes = (
{
closed = 1;
nodes = (
(2775,-535,ls),
(2938,-535,o),
(3069,-404,o),
(3069,-241,cs),
(3069,1001,ls),
(3069,1111,o),
(2976,1204,o),
(2866,1204,cs),
(2755,1204,o),
(2663,1111,o),
(2663,1001,cs),
(2663,-129,ls),
(2663,-129,o),
(2663,-129,o),
(2663,-129,cs),
(656,-129,ls),
(656,-129,o),
(656,-129,o),
(656,-129,cs),
(656,1878,ls),
(656,1878,o),
(656,1878,o),
(656,1878,cs),
(1785,1878,ls),
(1895,1878,o),
(1988,1971,o),
(1988,2082,cs),
(1988,2192,o),
(1895,2285,o),
(1785,2285,cs),
(543,2285,ls),
(381,2285,o),
(249,2154,o),
(249,1991,cs),
(249,-241,ls),
(249,-404,o),
(381,-535,o),
(543,-535,cs)
);
},
{
closed = 1;
nodes = (
(1580,650,o),
(1708,653,o),
(1789,733,cs),
(2904,1844,l),
(2904,1523,ls),
(2904,1413,o),
(2997,1320,o),
(3107,1320,cs),
(3218,1320,o),
(3310,1413,o),
(3310,1523,cs),
(3310,2338,ls),
(3310,2384,o),
(3295,2436,o),
(3252,2480,cs),
(3209,2523,o),
(3159,2541,o),
(3107,2541,cs),
(2293,2541,ls),
(2182,2541,o),
(2090,2449,o),
(2090,2338,cs),
(2090,2227,o),
(2182,2135,o),
(2293,2135,cs),
(2617,2135,l),
(1502,1017,ls),
(1425,940,o),
(1422,814,o),
(1499,733,cs)
);
}
);
userData = {
RMXScaler = {
height = 125;
verticalShift = -85;
width = 125;
};
};
width = 3620;
}
);
unicode = 1024048;
userData = {
RMXScaler = {
source = iconExternal.small;
};
};
}
{
color = 8;
glyphname = D.ss20;
layers = (
{
guides = (
{
pos = (1780,1024);
},
{
pos = (-128,764);
},
{
pos = (-128,1548);
},
{
pos = (1744,1696);
},
{
pos = (1744,348);
},
{
pos = (1280,1480);
},
{
pos = (1344,560);
}
);
layerId = "5C20EF92-B63D-42A8-8878-93C2863E0093";
shapes = (
{
closed = 1;
nodes = (
(914,0,ls),
(1480,0,o),
(1824,384,o),
(1824,1024,cs),
(1824,1664,o),
(1466,2048,o),
(900,2048,cs),
(402,2048,l),
(402,1576,l),
(872,1576,ls),
(1128,1576,o),
(1264,1452,o),
(1264,1024,cs),
(1264,596,o),
(1128,472,o),
(894,472,cs),
(408,472,l),
(408,0,l)
);
},
{
closed = 1;
nodes = (
(740,0,l),
(740,2048,l),
(184,2048,l),
(184,0,l)
);
}
);
userData = {
RMXScaler = {
width = 95;
};
};
width = 1984;
},
{
background = {
shapes = (
{
attr = {
strokeHeight = 64;
strokeWidth = 64;
};
closed = 0;
nodes = (
(254,2016,l),
(718,2016,ls),
(1174,2016,o),
(1466,1634,o),
(1466,1024,cs),
(1466,414,o),
(1156,32,o),
(674,32,cs),
(254,32,l)
);
}
);
};
layerId = "B1F27B51-9973-4381-9301-4FE46FE1CA59";
shapes = (
{
closed = 1;
nodes = (
(642,0,ls),
(1144,0,o),
(1466,398,o),
(1466,1024,cs),
(1466,1650,o),
(1162,2048,o),
(686,2048,cs),
(222,2048,l),
(222,1984,l),
(686,1984,ls),
(1122,1984,o),
(1402,1620,o),
(1402,1024,cs),
(1402,430,o),
(1106,64,o),
(642,64,cs),
(222,64,l),
(222,0,l)
);
},
{
closed = 1;
nodes = (
(254,0,l),
(254,2048,l),
(190,2048,l),
(190,0,l)
);
}
);
userData = {
RMXScaler = {
width = 82.5;
};
};
width = 1600;
},
{
layerId = "CD0E3B44-F66A-4791-B84C-A1128DC61275";
shapes = (
{
closed = 1;
nodes = (
(770,0,ls),
(1316,0,o),
(1628,388,o),
(1628,1028,cs),
(1628,1664,o),
(1316,2048,o),
(790,2048,cs),
(320,2048,l),
(320,1822,l),
(776,1822,ls),
(1178,1822,o),
(1380,1522,o),
(1380,1028,cs),
(1380,530,o),
(1178,226,o),
(756,226,cs),
(330,226,l),
(330,0,l)
);
},
{
closed = 1;
nodes = (
(452,0,l),
(452,2048,l),
(198,2048,l),
(198,0,l)
);
}
);
userData = {
RMXScaler = {
width = 87.5;
};
};
width = 1780;
}
);
note = "!post:RemoveOverlap";
userData = {
RMXScaler = {
source = D;
};
"interface.width-adjustments" = (
-16
);
};
}
{
color = 8;
glyphname = M.ss20;
layers = (
{
guides = (
{
pos = (44,1220);
},
{
orientation = center;
angle = 90;
pos = (-44,2164);
}
);
layerId = "5C20EF92-B63D-42A8-8878-93C2863E0093";
shapes = (
{
closed = 1;
nodes = (
(592,0,l),
(592,1192,l),
(616,1192,l),
(784,0,l),
(1200,0,l),
(1368,1192,l),
(1392,1192,l),
(1392,0,l),
(1850,0,l),
(1850,2048,l),
(1170,2048,l),
(1004,784,l),
(980,784,l),
(814,2048,l),
(134,2048,l),
(134,0,l)
);
}
);
userData = {
RMXScaler = {
width = 72.5;
};
};
width = 1984;
},
{
layerId = "B1F27B51-9973-4381-9301-4FE46FE1CA59";
shapes = (
{
closed = 1;
nodes = (
(196,0,l),
(196,1848,l),
(202,1848,l),
(760,0,l),
(840,0,l),
(1398,1848,l),
(1404,1848,l),
(1404,0,l),
(1468,0,l),
(1468,2048,l),
(1392,2048,l),
(804,102,l),
(796,102,l),
(208,2048,l),
(132,2048,l),
(132,0,l)
);
}
);
userData = {
RMXScaler = {
width = 67.5;
};
};
width = 1600;
},
{
layerId = "CD0E3B44-F66A-4791-B84C-A1128DC61275";
shapes = (
{
closed = 1;
nodes = (
(384,0,l),
(384,1504,l),
(400,1504,l),
(780,0,l),
(1000,0,l),
(1380,1504,l),
(1396,1504,l),
(1396,0,l),
(1636,0,l),
(1636,2048,l),
(1274,2048,l),
(898,544,l),
(882,544,l),
(506,2048,l),
(144,2048,l),
(144,0,l)
);
}
);
userData = {
RMXScaler = {
width = 70;
};
};
width = 1780;
},
{
associatedMasterId = "B1F27B51-9973-4381-9301-4FE46FE1CA59";
layerId = "F8DD1DD3-43EA-4579-B037-C2BACB9AEF53";
name = "Aug 20, 23 0:09";
shapes = (
{
closed = 1;
nodes = (
(196,0,l),
(196,1848,l),
(202,1848,l),
(774,480,l),
(828,480,l),
(1398,1848,l),
(1404,1848,l),
(1404,0,l),
(1468,0,l),
(1468,2048,l),
(1412,2048,l),
(804,588,l),
(798,588,l),
(188,2048,l),
(132,2048,l),
(132,0,l)
);
}
);
userData = {
RMXScaler = {
width = 67.5;
};
};
width = 1600;
},
{
associatedMasterId = "CD0E3B44-F66A-4791-B84C-A1128DC61275";
layerId = "2A9C7BCB-12CA-4FBE-8FAB-62ADB6360A30";
name = "Aug 20, 23 0:09";
shapes = (
{
closed = 1;
nodes = (
(384,0,l),
(384,1548,l),
(400,1548,l),
(800,480,l),
(980,480,l),
(1380,1546,l),
(1396,1546,l),
(1396,0,l),
(1636,0,l),
(1636,2048,l),
(1334,2048,l),
(898,874,l),
(882,874,l),
(446,2048,l),
(144,2048,l),
(144,0,l)
);
}
);
userData = {
RMXScaler = {
width = 70;
};
};
width = 1780;
},
{
associatedMasterId = "5C20EF92-B63D-42A8-8878-93C2863E0093";
guides = (
{
pos = (44,1220);
},
{
orientation = center;
angle = 90;
pos = (-44,2164);
}
);
layerId = "29585DA3-E953-438F-B7B3-2A43ACA2453C";
name = "Aug 20, 23 0:09";
shapes = (
{
closed = 1;
nodes = (
(612,0,l),
(612,1192,l),
(636,1192,l),
(804,480,l),
(1180,480,l),
(1348,1184,l),
(1372,1184,l),
(1372,0,l),
(1850,0,l),
(1850,2048,l),
(1230,2048,l),
(1004,968,l),
(980,968,l),
(754,2048,l),
(134,2048,l),
(134,0,l)
);
}
);
userData = {
RMXScaler = {
width = 72.5;
};
};
width = 1984;
}
);
userData = {
RMXScaler = {
source = M;
};
com.typemytype.robofont.guideline.magnetic.ezYETy42tZ = 5;
com.typemytype.robofont.guideline.magnetic.wu5HJlZVk6 = 5;
com.typemytype.robofont.guideline.magnetic.x5YoYrsuLC = 5;
"interface.width-adjustments" = (
-16
);
};
}
{
color = 8;
glyphname = N.ss20;
layers = (
{
guides = (
{
pos = (-134,1652);
},
{
orientation = center;
angle = 90;
pos = (-238,240);
}
);
layerId = "5C20EF92-B63D-42A8-8878-93C2863E0093";
shapes = (
{
closed = 1;
nodes = (
(1258,2048,l),
(1258,976,l),
(1246,976,l),
(710,2048,l),
(204,2048,l),
(204,0,l),
(726,0,l),
(726,1076,l),
(738,1076,l),
(1274,0,l),
(1780,0,l),
(1780,2048,l)
);
}
);
userData = {
RMXScaler = {
width = 97.5;
};
};
width = 1984;
},
{
layerId = "B1F27B51-9973-4381-9301-4FE46FE1CA59";
shapes = (
{
closed = 1;
nodes = (
(1324,2048,l),
(1324,120,l),
(1318,120,l),
(290,2048,l),
(212,2048,l),
(212,0,l),
(276,0,l),
(276,1928,l),
(282,1928,l),
(1310,0,l),
(1388,0,l),
(1388,2048,l)
);
}
);
userData = {
RMXScaler = {
width = 75;
};
};
width = 1600;
},
{
layerId = "CD0E3B44-F66A-4791-B84C-A1128DC61275";
shapes = (
{
closed = 1;
nodes = (
(1334,2048,l),
(1334,450,l),
(1320,450,l),
(486,2048,l),
(192,2048,l),
(192,0,l),
(446,0,l),
(446,1594,l),
(458,1594,l),
(1290,0,l),
(1588,0,l),
(1588,2048,l)
);
}
);
userData = {
RMXScaler = {
width = 85;
};
};
width = 1780;
}
);
userData = {
RMXScaler = {
source = N;
};
"interface.width-adjustments" = (
-16
);
};
}
{
color = 8;
glyphname = S.ss20;
layers = (
{
guides = (
{
pos = (-124,764);
},
{
pos = (-124,1552);
},
{
orientation = center;
angle = 90;
pos = (54,-132);
}
);
layerId = "5C20EF92-B63D-42A8-8878-93C2863E0093";
shapes = (
{
closed = 1;
nodes = (
(1808,1408,l),
(1808,1820,o),
(1488,2076,o),
(1016,2076,cs),
(536,2076,o),
(200,1814,o),
(200,1424,cs),
(200,1112,o),
(408,928,o),
(772,848,cs),
(972,804,ls),
(1190,756,o),
(1268,698,o),
(1268,604,cs,{
name = hr00;
}),
(1268,504,o),
(1180,432,o),
(1010,432,cs),
(812,432,o),
(686,528,o),
(678,720,c),
(150,720,l),
(152,210,o),
(488,-24,o),
(1020,-24,cs),
(1528,-24,o),
(1834,200,o),
(1834,604,cs),
(1834,908,o),
(1656,1132,o),
(1206,1232,cs),
(1044,1268,ls),
(846,1312,o),
(776,1372,o),
(778,1462,cs),
(780,1534,o),
(818,1620,o),
(1014,1620,cs),
(1194,1620,o),
(1266,1534,o),
(1276,1408,c)
);
}
);
userData = {
RMXScaler = {
width = 105;
};
};
width = 1984;
},
{
layerId = "B1F27B51-9973-4381-9301-4FE46FE1CA59";
shapes = (
{
closed = 1;
nodes = (
(1388,1536,l),
(1368,1854,o),
(1142,2080,o),
(810,2080,cs),
(478,2080,o),
(232,1854,o),
(232,1552,cs),
(232,1320,o),
(376,1150,o),
(688,1048,cs),
(908,976,ls),
(1226,872,o),
(1350,738,o),
(1350,520,cs),
(1350,230,o),
(1128,32,o),
(794,32,cs),
(472,32,o),
(270,216,o),
(250,480,c),
(186,480,l),
(206,176,o),
(442,-32,o),
(794,-32,cs),
(1164,-32,o),
(1414,200,o),
(1414,520,cs),
(1414,776,o),
(1254,932,o),
(924,1040,cs),
(704,1112,ls),
(416,1206,o),
(296,1352,o),
(296,1552,cs),
(296,1820,o),
(512,2016,o),
(810,2016,cs),
(1112,2016,o),
(1306,1814,o),
(1324,1536,c)
);
}
);
userData = {
RMXScaler = {
width = 95;
};
};
width = 1600;
},
{
layerId = "CD0E3B44-F66A-4791-B84C-A1128DC61275";
shapes = (
{
closed = 1;
nodes = (
(1572,1532,l),
(1562,1840,o),
(1296,2076,o),
(908,2076,cs),
(530,2076,o),
(236,1848,o),
(236,1502,cs),
(236,1224,o),
(424,1060,o),
(734,968,cs),
(970,898,ls),
(1172,838,o),
(1352,762,o),
(1352,562,cs),
(1352,340,o),
(1154,194,o),
(890,194,cs),
(662,194,o),
(458,300,o),
(440,532,c),
(182,532,l),
(204,190,o),
(470,-36,o),
(890,-36,cs),
(1342,-36,o),
(1598,224,o),
(1598,558,cs),
(1598,938,o),
(1266,1064,o),
(1048,1124,cs),
(852,1178,ls),
(714,1216,o),
(498,1292,o),
(484,1492,cs),
(470,1698,o),
(640,1850,o),
(902,1850,cs),
(1132,1850,o),
(1306,1734,o),
(1326,1532,c)
);
}
);
userData = {
RMXScaler = {
width = 95;
};
};
width = 1780;
}
);
note = "recipe: use stroke + offset curve filter with 32, no autostroke";
userData = {
RMXScaler = {
source = S;
};
com.typemytype.robofont.guideline.magnetic.yXeOBXqbc8 = 5;
"interface.width-adjustments" = (
-16
);
};
}
{
color = 8;
glyphname = Y.ss20;
layers = (
{
guides = (
{
orientation = center;
angle = 90;
pos = (-124,1724);
}
);
layerId = "5C20EF92-B63D-42A8-8878-93C2863E0093";
shapes = (
{
closed = 1;
nodes = (
(716,644,l),
(716,0,l),
(1268,0,l),
(1268,644,l),
(1926,2048,l),
(1320,2048,l),
(998,1216,l),
(986,1216,l),
(664,2048,l),
(58,2048,l)
);
}
);
userData = {
RMXScaler = {
width = 87.5;
};
};
width = 1984;
},
{
layerId = "B1F27B51-9973-4381-9301-4FE46FE1CA59";
shapes = (
{
closed = 1;
nodes = (
(768,972,l),
(768,0,l),
(832,0,l),
(832,972,l),
(1530,2048,l),
(1454,2048,l),
(804,1044,l),
(796,1044,l),
(146,2048,l),
(70,2048,l)
);
}
);
userData = {
RMXScaler = {
width = 95;
};
};
width = 1600;
},
{
layerId = "CD0E3B44-F66A-4791-B84C-A1128DC61275";
shapes = (
{
closed = 1;
nodes = (
(762,840,l),
(762,0,l),
(1018,0,l),
(1018,840,l),
(1708,2048,l),
(1418,2048,l),
(902,1096,l),
(878,1096,l),
(362,2048,l),
(72,2048,l)
);
}
);
userData = {
RMXScaler = {
width = 95;
};
};
width = 1780;
}
);
userData = {
RMXScaler = {
source = Y;
};
com.typemytype.robofont.guideline.magnetic.KceIXUepDd = 5;
com.typemytype.robofont.guideline.magnetic.TWkdg41wEI = 5;
com.typemytype.robofont.guideline.magnetic.o5DXjGQkF9 = 5;
"interface.width-adjustments" = (
-16
);
};
}
{
color = 8;
glyphname = a.ss20;
layers = (
{
guides = (
{
pos = (162,2280);
},
{
angle = 90;
pos = (1010,1164);
}
);
layerId = "5C20EF92-B63D-42A8-8878-93C2863E0093";
shapes = (
{
closed = 1;
nodes = (
(920,-24,o),
(1072,44,o),
(1164,216,c),
(1176,216,l),
(1176,0,l),
(1692,0,l),
(1692,1052,ls),
(1692,1336,o),
(1424,1556,o),
(984,1556,cs),
(526,1556,o),
(300,1316,o),
(280,1036,c),
(788,1036,l),
(802,1132,o),
(872,1176,o),
(976,1176,cs),
(1072,1176,o),
(1140,1132,o),
(1140,1052,cs),
(1144,544,ls),
(1146,404,o),
(1026,324,o),
(900,324,cs),
(806,324,o),
(740,370,o),
(740,456,cs),
(740,536,o),
(796,598,o),
(884,608,cs),
(970,618,o),
(1150,624,o),
(1164,624,c),
(1162,930,l),
(1150,930,o),
(924,922,o),
(786,914,cs),
(470,896,o),
(220,762,o),
(220,424,cs),
(220,118,o),
(426,-24,o),
(720,-24,cs)
);
}
);
userData = {
RMXScaler = {
width = 110;
};
};
width = 1984;
},
{
guides = (
{
angle = 90;
pos = (822,2200);
}
);
layerId = "B1F27B51-9973-4381-9301-4FE46FE1CA59";
shapes = (
{
closed = 1;
nodes = (
(926,-32,o),
(1114,104,o),
(1210,312,c),
(1218,312,l),
(1218,0,l),
(1282,0,l),
(1282,1104,ls),
(1282,1364,o),
(1090,1560,o),
(782,1560,cs),
(522,1560,o),
(302,1428,o),
(264,1204,c),
(330,1204,l),
(372,1394,o),
(560,1496,o),
(782,1496,cs),
(1044,1496,o),
(1218,1340,o),
(1218,1104,cs),
(1218,656,ls),
(1218,284,o),
(986,32,o),
(694,32,cs),
(466,32,o),
(290,184,o),
(290,416,cs),
(290,612,o),
(398,784,o),
(790,814,cs),
(894,822,o),
(1228,850,o),
(1242,850,c),
(1240,912,l),
(1228,912,o),
(900,886,o),
(766,874,cs),
(334,840,o),
(226,624,o),
(226,416,cs),
(226,128,o),
(442,-32,o),
(694,-32,cs)
);
}
);
width = 1600;
},
{
layerId = "CD0E3B44-F66A-4791-B84C-A1128DC61275";
shapes = (
{
closed = 1;
nodes = (
(1012,-36,o),
(1152,106,o),
(1202,208,c),
(1214,208,l),
(1214,0,l),
(1456,0,l),
(1456,1012,ls),
(1456,1496,o),
(1078,1556,o),
(878,1556,cs),
(538,1556,o),
(298,1384,o),
(268,1136,c),
(520,1136,l),
(556,1254,o),
(672,1344,o),
(866,1344,cs),
(1098,1344,o),
(1214,1230,o),
(1214,1036,cs),
(1214,556,ls),
(1214,364,o),
(1062,180,o),
(786,180,cs),
(600,180,o),
(466,262,o),
(466,424,cs),
(466,592,o),
(606,670,o),
(828,684,cs),
(912,690,o),
(1218,712,o),
(1234,712,c),
(1230,912,l),
(1208,912,o),
(910,896,o),
(798,888,cs),
(532,868,o),
(222,788,o),
(222,436,cs),
(222,136,o),
(454,-36,o),
(746,-36,cs)
);
}
);
vertWidth = 0;
width = 1780;
}
);
userData = {
RMXScaler = {
source = a;
};
com.typemytype.robofont.guideline.magnetic.bPqRSFRUb5 = 5;
"interface.width-adjustments" = (
-16
);
};
}
{
glyphname = bullet.ss19;
kernLeft = bullet;
kernRight = bullet;
layers = (
{
guides = (
{
pos = (-132,2716);
},
{
orientation = center;
pos = (376,816);
}
);
layerId = "5C20EF92-B63D-42A8-8878-93C2863E0093";
shapes = (
{
closed = 1;
nodes = (
(918,366,o),
(1118,568,o),
(1118,816,cs),
(1118,1066,o),
(918,1266,o),
(668,1266,cs),
(420,1266,o),
(218,1066,o),
(218,816,cs),
(218,568,o),
(420,366,o),
(668,366,cs)
);
}
);
width = 1336;
},
{
guides = (
{
orientation = center;
pos = (290,1400);
}
);
layerId = "B1F27B51-9973-4381-9301-4FE46FE1CA59";
shapes = (
{
closed = 1;
nodes = (
(686,636,o),
(766,718,o),
(766,816,cs),
(766,916,o),
(686,996,o),
(586,996,cs),
(488,996,o),
(406,916,o),
(406,816,cs),
(406,718,o),
(488,636,o),
(586,636,cs)
);
}
);
width = 1172;
},
{
layerId = "CD0E3B44-F66A-4791-B84C-A1128DC61275";
shapes = (
{
closed = 1;
nodes = (
(786,526,o),
(916,656,o),
(916,816,cs),
(916,976,o),
(786,1106,o),
(626,1106,cs),
(466,1106,o),
(336,976,o),
(336,816,cs),
(336,656,o),
(466,526,o),
(626,526,cs)
);
}
);
width = 1254;
},
{
associatedMasterId = "5C20EF92-B63D-42A8-8878-93C2863E0093";
guides = (
{
pos = (-176,2716);
},
{
orientation = center;
pos = (956,816);
}
);
layerId = "8ECFF665-BE12-42B1-BC36-2E67EF15E177";
name = "Sep 26, 21 13:38";
shapes = (
{
closed = 1;
nodes = (
(891,376,o),
(1088,573,o),
(1088,816,cs),
(1088,1059,o),
(891,1256,o),
(648,1256,cs),
(405,1256,o),
(208,1059,o),
(208,816,cs),
(208,573,o),
(405,376,o),
(648,376,cs)
);
}
);
width = 1248;
},
{
associatedMasterId = "B1F27B51-9973-4381-9301-4FE46FE1CA59";
guides = (
{
orientation = center;
pos = (968,1400);
}
);
layerId = "5A0EF19E-591E-4172-A8B6-7E80E9FF2DA1";
name = "Sep 26, 21 13:38";
shapes = (
{
closed = 1;
nodes = (
(772,560,o),
(887,675,o),
(888,816,cs),
(889,957,o),
(772,1072,o),
(632,1072,cs),
(490,1072,o),
(375,957,o),
(376,816,cs),
(377,675,o),
(490,560,o),
(632,560,cs)
);
}
);
width = 1264;
}
);
userData = {
"interface.width-adjustments" = (
-16
);
};
}
{
color = 8;
glyphname = g.ss20;
layers = (
{
layerId = "5C20EF92-B63D-42A8-8878-93C2863E0093";
shapes = (
{
closed = 1;
nodes = (
(1424,-608,o),
(1742,-386,o),
(1742,4,cs),
(1742,1536,l),
(1196,1536,l),
(1196,1268,l),
(1180,1268,l),
(1214,788,l),
(1180,308,l),
(1190,308,l),
(1190,4,ls),
(1190,-176,o),
(1098,-236,o),
(960,-236,cs),
(838,-236,o),
(748,-198,o),
(732,-100,c),
(200,-100,l),
(222,-396,o),
(486,-608,o),
(944,-608,cs)
);
},
{
closed = 1;
nodes = (
(1084,18,o),
(1256,294,o),
(1256,734,cs),
(1256,842,ls),
(1256,1282,o),
(1084,1558,o),
(738,1558,cs),
(390,1558,o),
(172,1282,o),
(172,842,cs),
(172,734,ls),
(172,294,o),
(390,18,o),
(738,18,cs)
);
},
{
closed = 1;
nodes = (
(816,422,o),
(736,508,o),
(736,734,cs),
(736,842,ls),
(736,1066,o),
(816,1154,o),
(954,1154,cs),
(1088,1154,o),
(1168,1068,o),
(1168,842,cs),
(1168,734,ls),
(1168,508,o),
(1088,422,o),
(954,422,cs)
);
}
);
width = 1984;
},
{
layerId = "B1F27B51-9973-4381-9301-4FE46FE1CA59";
shapes = (
{
closed = 1;
nodes = (
(1120,-608,o),
(1326,-410,o),
(1326,-32,cs),
(1326,1536,l),
(1262,1536,l),
(1262,1232,l),
(1238,1232,l),
(1292,780,l),
(1238,328,l),
(1262,328,l),
(1262,-32,ls),
(1262,-376,o),
(1084,-544,o),
(782,-544,cs),
(566,-544,o),
(374,-456,o),
(326,-276,c),
(256,-276,l),
(312,-506,o),
(538,-608,o),
(782,-608,cs)
);
},
{
closed = 1;
nodes = (
(1110,0,o),
(1310,256,o),
(1310,652,cs),
(1310,908,ls),
(1310,1304,o),
(1110,1560,o),
(766,1560,cs),
(422,1560,o),
(206,1304,o),
(206,908,cs),
(206,652,ls),
(206,256,o),
(422,0,o),
(766,0,cs)
);
},
{
closed = 1;
nodes = (
(462,64,o),
(270,288,o),
(270,652,cs),
(270,908,ls),
(270,1272,o),
(462,1496,o),
(766,1496,cs),
(1070,1496,o),
(1262,1272,o),
(1262,908,cs),
(1262,652,ls),
(1262,288,o),
(1070,64,o),
(766,64,cs)
);
}
);
width = 1600;
},
{
layerId = "CD0E3B44-F66A-4791-B84C-A1128DC61275";
shapes = (
{
closed = 1;
nodes = (
(1222,-608,o),
(1504,-438,o),
(1504,-42,cs),
(1504,1536,l),
(1268,1536,l),
(1268,1288,l),
(1226,1288,l),
(1292,792,l),
(1226,288,l),
(1260,288,l),
(1260,-28,ls),
(1260,-282,o),
(1110,-396,o),
(862,-396,cs),
(658,-396,o),
(520,-318,o),
(490,-160,c),
(234,-160,l),
(260,-446,o),
(504,-608,o),
(862,-608,cs)
);
},
{
closed = 1;
nodes = (
(1138,24,o),
(1338,292,o),
(1338,734,cs),
(1338,846,ls),
(1338,1286,o),
(1138,1556,o),
(788,1556,cs),
(434,1556,o),
(190,1286,o),
(190,846,cs),
(190,734,ls),
(190,294,o),
(434,24,o),
(788,24,cs)
);
},
{
closed = 1;
nodes = (
(588,240,o),
(434,422,o),
(434,734,cs),
(434,846,ls),
(434,1156,o),
(588,1340,o),
(852,1340,cs),
(1112,1340,o),
(1266,1158,o),
(1266,846,cs),
(1266,734,ls),
(1266,422,o),
(1112,240,o),
(852,240,cs)
);
}
);
vertWidth = 0;
width = 1780;
}
);
userData = {
RMXScaler = {
source = g;
};
"interface.width-adjustments" = (
-16
);
};
}
{
color = 11;
glyphname = iconArrowLeft.small;
layers = (
{
layerId = "CD0E3B44-F66A-4791-B84C-A1128DC61275";
shapes = (
{
closed = 1;
nodes = (
(1478,39,o),
(1557,39,o),
(1602,87,cs),
(1650,133,o),
(1650,211,o),
(1602,256,cs),
(956,905,l),
(2232,905,ls),
(2299,905,o),
(2353,959,o),
(2353,1026,cs),
(2353,1092,o),
(2299,1146,o),
(2232,1146,cs),
(956,1146,l),
(1602,1795,ls),
(1650,1840,o),
(1650,1919,o),
(1602,1964,cs),
(1557,2012,o),
(1478,2012,o),
(1433,1964,cs),
(579,1110,ls),
(531,1065,o),
(531,986,o),
(579,941,cs),
(1433,87,ls)
);
}
);
width = 2896;
},
{
layerId = "B1F27B51-9973-4381-9301-4FE46FE1CA59";
shapes = (
{
closed = 1;
nodes = (
(1502,117,o),
(1532,117,o),
(1553,137,cs),
(1573,157,o),
(1573,187,o),
(1553,207,cs),
(784,975,l),
(2232,975,ls),
(2261,975,o),
(2283,997,o),
(2283,1026,cs),
(2283,1054,o),
(2261,1076,o),
(2232,1076,cs),
(784,1076,l),
(1553,1844,ls),
(1573,1864,o),
(1573,1894,o),
(1553,1915,cs),
(1532,1935,o),
(1502,1935,o),
(1482,1915,cs),
(628,1061,ls),
(608,1041,o),
(608,1011,o),
(628,990,cs),
(1482,137,ls)
);
}
);
width = 2896;
},
{
layerId = "5C20EF92-B63D-42A8-8878-93C2863E0093";
shapes = (
{
closed = 1;
nodes = (
(1459,-31,o),
(1576,-31,o),
(1647,42,cs),
(1720,114,o),
(1720,230,o),
(1647,305,cs),
(1111,841,l),
(2232,841,ls),
(2334,841,o),
(2417,924,o),
(2417,1026,cs),
(2417,1127,o),
(2334,1211,o),
(2232,1211,cs),
(1111,1211,l),
(1647,1747,ls),
(1720,1821,o),
(1720,1938,o),
(1647,2009,cs),
(1576,2082,o),
(1459,2082,o),
(1385,2009,cs),
(534,1155,ls),
(461,1084,o),
(461,967,o),
(534,896,cs),
(1385,42,ls)
);
}
);
width = 2896;
}
);
metricWidth = baseSymbol;
}
{
color = 11;
glyphname = iconArrowLongLeft.large;
layers = (
{
layerId = "CD0E3B44-F66A-4791-B84C-A1128DC61275";
metricWidth = "=baseSymbol.large";
shapes = (
{
closed = 1;
nodes = (
(1671,-151,o),
(1759,-154,o),
(1816,-100,cs),
(1879,-39,o),
(1867,51,o),
(1816,103,cs),
(1035,884,l),
(3647,884,ls),
(3723,884,o),
(3786,947,o),
(3786,1026,cs),
(3786,1104,o),
(3723,1167,o),
(3647,1167,cs),
(1035,1167,l),
(1816,1949,ls),
(1873,2006,o),
(1873,2097,o),
(1816,2151,cs),
(1756,2208,o),
(1668,2199,o),
(1620,2151,cs),
(594,1125,ls),
(567,1098,o),
(555,1062,o),
(555,1026,cs),
(555,989,o),
(567,953,o),
(594,926,cs),
(1620,-100,ls)
);
}
);
userData = {
RMXScaler = {
height = 150;
verticalShift = -170;
width = 150;
};
};
width = 4344;
},
{
layerId = "B1F27B51-9973-4381-9301-4FE46FE1CA59";
metricWidth = "=baseSymbol.large";
shapes = (
{
closed = 1;
nodes = (
(1695,-73,o),
(1738,-76,o),
(1770,-46,cs),
(1802,-18,o),
(1793,30,o),
(1770,53,cs),
(869,954,l),
(3647,954,ls),
(3687,954,o),
(3719,986,o),
(3719,1026,cs),
(3719,1065,o),
(3687,1097,o),
(3647,1097,cs),
(869,1097,l),
(1770,1998,ls),
(1796,2024,o),
(1799,2071,o),
(1770,2098,cs),
(1735,2131,o),
(1692,2122,o),
(1669,2098,cs),
(648,1076,ls),
(630,1060,o),
(625,1041,o),
(625,1026,cs),
(625,1011,o),
(630,992,o),
(648,975,cs),
(1669,-46,ls)
);
}
);
userData = {
RMXScaler = {
height = 150;
verticalShift = -170;
width = 150;
};
};
width = 4344;
},
{
layerId = "5C20EF92-B63D-42A8-8878-93C2863E0093";
metricWidth = "=baseSymbol.large";
shapes = (
{
closed = 1;
nodes = (
(1649,-240,o),
(1791,-240,o),
(1873,-157,cs),
(1960,-71,o),
(1964,67,o),
(1873,157,cs),
(1231,803,l),
(3647,803,ls),
(3771,803,o),
(3869,902,o),
(3869,1026,cs),
(3869,1149,o),
(3771,1248,o),
(3647,1248,cs),
(1231,1248,l),
(1873,1894,ls),
(1963,1984,o),
(1960,2123,o),
(1873,2208,cs),
(1791,2292,o),
(1649,2293,o),
(1566,2208,cs),
(537,1180,ls),
(497,1140,o),
(475,1084,o),
(475,1026,cs),
(475,967,o),
(497,911,o),
(537,872,cs),
(1566,-157,ls)
);
}
);
userData = {
RMXScaler = {
height = 150;
verticalShift = -170;
width = 150;
};
};
width = 4344;
}
);
userData = {
RMXScaler = {
source = logoWepublic.small;
};
};
}
{
color = 11;
glyphname = iconCaretUp.small;
layers = (
{
layerId = "CD0E3B44-F66A-4791-B84C-A1128DC61275";
shapes = (
{
closed = 1;
nodes = (
(2112,664,ls),
(2160,664,o),
(2205,694,o),
(2223,739,cs),
(2241,784,o),
(2232,836,o),
(2196,869,cs),
(1532,1532,ls),
(1487,1581,o),
(1409,1581,o),
(1364,1532,cs),
(700,869,ls),
(664,836,o),
(655,784,o),
(673,739,cs),
(691,694,o),
(736,664,o),
(784,664,cs)
);
}
);
width = 2896;
},
{
layerId = "B1F27B51-9973-4381-9301-4FE46FE1CA59";
shapes = (
{
closed = 1;
nodes = (
(2112,734,ls),
(2132,734,o),
(2149,746,o),
(2157,763,cs),
(2168,784,o),
(2162,804,o),
(2147,820,cs),
(1483,1483,ls),
(1463,1503,o),
(1433,1503,o),
(1413,1483,cs),
(749,820,ls),
(734,804,o),
(728,784,o),
(739,763,cs),
(747,746,o),
(764,734,o),
(784,734,cs)
);
}
);
width = 2896;
},
{
layerId = "5C20EF92-B63D-42A8-8878-93C2863E0093";
shapes = (
{
closed = 1;
nodes = (
(2112,599,ls),
(2186,599,o),
(2253,646,o),
(2282,713,cs),
(2312,781,o),
(2297,862,o),
(2241,914,cs),
(1578,1578,ls),
(1506,1651,o),
(1390,1651,o),
(1318,1578,cs),
(655,914,ls),
(599,862,o),
(584,781,o),
(614,713,cs),
(643,646,o),
(710,599,o),
(784,599,cs)
);
}
);
width = 2896;
}
);
metricWidth = baseSymbol;
}
{
color = 11;
glyphname = iconCheck.large;
layers = (
{
layerId = "CD0E3B44-F66A-4791-B84C-A1128DC61275";
metricWidth = "=baseSymbol.large";
shapes = (
{
closed = 1;
nodes = (
(1753,-169,o),
(1792,-157,o),
(1822,-124,cs),
(3632,1834,ls),
(3683,1888,o),
(3683,1979,o),
(3623,2033,cs),
(3560,2091,o),
(3475,2078,o),
(3427,2027,cs),
(1713,172,l),
(911,974,ls),
(857,1029,o),
(769,1029,o),
(715,974,cs),
(661,920,o),
(661,830,o),
(715,775,cs),
(1620,-130,ls),
(1647,-157,o),
(1686,-169,o),
(1723,-169,cs)
);
}
);
userData = {
RMXScaler = {
height = 150;
verticalShift = -170;
width = 150;
};
};
width = 4344;
},
{
layerId = "B1F27B51-9973-4381-9301-4FE46FE1CA59";
metricWidth = "=baseSymbol.large";
shapes = (
{
closed = 1;
nodes = (
(1745,-102,o),
(1760,-94,o),
(1773,-81,cs),
(3583,1880,ls),
(3609,1910,o),
(3609,1958,o),
(3581,1984,cs),
(3552,2009,o),
(3506,2014,o),
(3476,1981,cs),
(1713,77,l),
(865,925,ls),
(832,957,o),
(790,951,o),
(764,925,cs),
(738,899,o),
(738,855,o),
(764,829,cs),
(1669,-76,ls),
(1689,-97,o),
(1707,-102,o),
(1720,-102,cs)
);
}
);
userData = {
RMXScaler = {
height = 150;
verticalShift = -170;
width = 150;
};
};
width = 4344;
},
{
layerId = "5C20EF92-B63D-42A8-8878-93C2863E0093";
metricWidth = "=baseSymbol.large";
shapes = (
{
closed = 1;
nodes = (
(1788,-252,o),
(1843,-221,o),
(1883,-178,cs),
(3693,1780,ls),
(3773,1866,o),
(3773,2005,o),
(3683,2091,cs),
(3585,2184,o),
(3446,2165,o),
(3370,2081,cs),
(1713,288,l),
(972,1032,ls),
(886,1118,o),
(747,1118,o),
(661,1032,cs),
(571,942,o),
(574,803,o),
(661,718,cs),
(1566,-187,ls),
(1609,-230,o),
(1670,-252,o),
(1726,-252,cs)
);
}
);
userData = {
RMXScaler = {
height = 150;
verticalShift = -170;
width = 150;
};
};
width = 4344;
}
);
userData = {
RMXScaler = {
source = iconCheck.small;
};
};
}
{
color = 11;
glyphname = iconChevronRight.large;
layers = (
{
layerId = "CD0E3B44-F66A-4791-B84C-A1128DC61275";
metricWidth = "=baseSymbol.large";
shapes = (
{
closed = 1;
nodes = (
(1572,-407,o),
(1659,-407,o),
(1713,-353,cs),
(2996,926,ls),
(3050,980,o),
(3053,1068,o),
(2996,1125,cs),
(1713,2404,ls),
(1656,2462,o),
(1569,2456,o),
(1517,2404,cs),
(1460,2344,o),
(1466,2259,o),
(1517,2208,cs),
(2697,1026,l),
(1517,-157,ls),
(1463,-211,o),
(1463,-299,o),
(1517,-353,cs)
);
}
);
userData = {
RMXScaler = {
height = 150;
verticalShift = -170;
width = 150;
};
};
width = 4344;
},
{
layerId = "B1F27B51-9973-4381-9301-4FE46FE1CA59";
metricWidth = "=baseSymbol.large";
shapes = (
{
closed = 1;
nodes = (
(1596,-333,o),
(1638,-333,o),
(1667,-304,cs),
(2946,975,ls),
(2976,1005,o),
(2976,1047,o),
(2946,1076,cs),
(1667,2355,ls),
(1635,2387,o),
(1593,2381,o),
(1567,2355,cs),
(1541,2330,o),
(1540,2285,o),
(1567,2257,cs),
(2799,1026,l),
(1567,-206,ls),
(1540,-232,o),
(1537,-275,o),
(1567,-304,cs)
);
}
);
userData = {
RMXScaler = {
height = 150;
verticalShift = -170;
width = 150;
};
};
width = 4344;
},
{
layerId = "5C20EF92-B63D-42A8-8878-93C2863E0093";
metricWidth = "=baseSymbol.large";
shapes = (
{
closed = 1;
nodes = (
(1546,-497,o),
(1685,-497,o),
(1771,-410,cs),
(3050,872,ls),
(3136,958,o),
(3136,1094,o),
(3050,1180,cs),
(1771,2462,ls),
(1685,2548,o),
(1547,2548,o),
(1460,2462,cs),
(1371,2373,o),
(1374,2233,o),
(1460,2147,cs),
(2581,1026,l),
(1460,-96,ls),
(1377,-179,o),
(1367,-321,o),
(1460,-410,cs)
);
}
);
userData = {
RMXScaler = {
height = 150;
verticalShift = -170;
width = 150;
};
};
width = 4344;
}
);
userData = {
RMXScaler = {
source = iconChevronRight.small;
};
};
}
{
color = 11;
glyphname = iconCircleCheckFill.small;
layers = (
{
layerId = "CD0E3B44-F66A-4791-B84C-A1128DC61275";
shapes = (
{
closed = 1;
nodes = (
(2115,-181,o),
(2655,359,o),
(2655,1026,cs),
(2655,1692,o),
(2115,2232,o),
(1448,2232,cs),
(781,2232,o),
(241,1692,o),
(241,1026,cs),
(241,359,o),
(781,-181,o),
(1448,-181,cs)
);
},
{
closed = 1;
nodes = (
(821,881,ls),
(772,926,o),
(772,1005,o),
(821,1050,cs),
(866,1098,o),
(944,1098,o),
(989,1050,cs),
(1267,775,l),
(1907,1412,ls),
(1952,1460,o),
(2030,1460,o),
(2075,1412,cs),
(2124,1367,o),
(2124,1288,o),
(2075,1243,cs),
(1351,519,ls),
(1306,471,o),
(1228,471,o),
(1183,519,cs)
);
}
);
width = 2896;
},
{
layerId = "B1F27B51-9973-4381-9301-4FE46FE1CA59";
shapes = (
{
closed = 1;
nodes = (
(2115,-181,o),
(2655,359,o),
(2655,1026,cs),
(2655,1692,o),
(2115,2232,o),
(1448,2232,cs),
(781,2232,o),
(241,1692,o),
(241,1026,cs),
(241,359,o),
(781,-181,o),
(1448,-181,cs)
);
},
{
closed = 1;
nodes = (
(870,930,ls),
(850,950,o),
(850,980,o),
(870,1001,cs),
(890,1021,o),
(920,1021,o),
(940,1001,cs),
(1267,674,l),
(1956,1363,ls),
(1976,1383,o),
(2006,1383,o),
(2026,1363,cs),
(2046,1342,o),
(2046,1312,o),
(2026,1292,cs),
(1302,568,ls),
(1282,548,o),
(1252,548,o),
(1232,568,cs)
);
}
);
width = 2896;
},
{
layerId = "5C20EF92-B63D-42A8-8878-93C2863E0093";
shapes = (
{
closed = 1;
nodes = (
(2115,-181,o),
(2655,359,o),
(2655,1026,cs),
(2655,1692,o),
(2115,2232,o),
(1448,2232,cs),
(781,2232,o),
(241,1692,o),
(241,1026,cs),
(241,359,o),
(781,-181,o),
(1448,-181,cs)
);
},
{
closed = 1;
nodes = (
(775,836,ls),
(702,907,o),
(702,1024,o),
(775,1095,cs),
(847,1168,o),
(963,1168,o),
(1035,1095,cs),
(1267,866,l),
(1861,1457,ls),
(1933,1530,o),
(2049,1530,o),
(2121,1457,cs),
(2194,1386,o),
(2194,1269,o),
(2121,1198,cs),
(1397,474,ls),
(1325,399,o),
(1209,399,o),
(1137,474,cs)
);
}
);
width = 2896;
}
);
metricWidth = baseSymbol;
}
{
color = 11;
glyphname = iconCircleFill.large;
layers = (
{
layerId = "CD0E3B44-F66A-4791-B84C-A1128DC61275";
metricWidth = "=baseSymbol.large";
shapes = (
{
closed = 1;
nodes = (
(3174,-784,o),
(3982,24,o),
(3982,1026,cs),
(3982,2027,o),
(3174,2836,o),
(2172,2836,cs),
(1173,2836,o),
(362,2027,o),
(362,1026,cs),
(362,24,o),
(1173,-784,o),
(2172,-784,cs)
);
}
);
userData = {
RMXScaler = {
height = 150;
verticalShift = -170;
width = 150;
};
};
width = 4344;
},
{
layerId = "B1F27B51-9973-4381-9301-4FE46FE1CA59";
metricWidth = "=baseSymbol.large";
shapes = (
{
closed = 1;
nodes = (
(3174,-784,o),
(3982,27,o),
(3982,1026,cs),
(3982,2027,o),
(3174,2836,o),
(2172,2836,cs),
(1173,2836,o),
(362,2027,o),
(362,1026,cs),
(362,27,o),
(1173,-784,o),
(2172,-784,cs)
);
}
);
userData = {
RMXScaler = {
height = 150;
verticalShift = -170;
width = 150;
};
};
width = 4344;
},
{
layerId = "5C20EF92-B63D-42A8-8878-93C2863E0093";
metricWidth = "=baseSymbol.large";
shapes = (
{
closed = 1;
nodes = (
(3174,-784,o),
(3982,27,o),
(3982,1026,cs),
(3982,2027,o),
(3174,2836,o),
(2172,2836,cs),
(1173,2836,o),
(362,2027,o),
(362,1026,cs),
(362,27,o),
(1173,-784,o),
(2172,-784,cs)
);
}
);
userData = {
RMXScaler = {
height = 150;
verticalShift = -170;
width = 150;
};
};
width = 4344;
}
);
userData = {
RMXScaler = {
source = iconCircleFill.small;
};
};
}
{
color = 11;
glyphname = iconDividerTight.small;
layers = (
{
layerId = "CD0E3B44-F66A-4791-B84C-A1128DC61275";
metricWidth = "=baseSymbol/2";
shapes = (
{
closed = 1;
nodes = (
(757,0,o),
(784,27,o),
(784,60,cs),
(784,1991,ls),
(784,2024,o),
(757,2051,o),
(724,2051,cs),
(691,2051,o),
(664,2024,o),
(664,1991,cs),
(664,60,ls),
(664,27,o),
(691,0,o),
(724,0,cs)
);
}
);
width = 1448;
},
{
layerId = "B1F27B51-9973-4381-9301-4FE46FE1CA59";
metricWidth = "=baseSymbol/2";
shapes = (
{
closed = 1;
nodes = (
(739,36,o),
(748,45,o),
(748,60,cs),
(748,1991,ls),
(748,2006,o),
(739,2015,o),
(724,2015,cs),
(709,2015,o),
(700,2006,o),
(700,1991,cs),
(700,60,ls),
(700,45,o),
(709,36,o),
(724,36,cs)
);
}
);
width = 1448;
},
{
layerId = "5C20EF92-B63D-42A8-8878-93C2863E0093";
metricWidth = "=baseSymbol/2";
shapes = (
{
closed = 1;
nodes = (
(792,-63,o),
(849,-8,o),
(849,60,cs),
(849,1991,ls),
(849,2059,o),
(792,2116,o),
(724,2116,cs),
(656,2116,o),
(599,2059,o),
(599,1991,cs),
(599,60,ls),
(599,-8,o),
(656,-63,o),
(724,-63,cs)
);
}
);
width = 1448;
}
);
}
{
color = 11;
glyphname = iconDot2.large;
layers = (
{
layerId = "CD0E3B44-F66A-4791-B84C-A1128DC61275";
metricWidth = "=baseSymbol.large";
shapes = (
{
closed = 1;
nodes = (
(2570,302,o),
(2896,627,o),
(2896,1026,cs),
(2896,1424,o),
(2570,1750,o),
(2172,1750,cs),
(1774,1750,o),
(1448,1424,o),
(1448,1026,cs),
(1448,627,o),
(1774,302,o),
(2172,302,cs)
);
}
);
userData = {
RMXScaler = {
height = 150;
verticalShift = -170;
width = 150;
};
};
width = 4344;
},
{
layerId = "B1F27B51-9973-4381-9301-4FE46FE1CA59";
metricWidth = "=baseSymbol.large";
shapes = (
{
closed = 1;
nodes = (
(2570,302,o),
(2896,627,o),
(2896,1026,cs),
(2896,1424,o),
(2570,1750,o),
(2172,1750,cs),
(1774,1750,o),
(1448,1424,o),
(1448,1026,cs),
(1448,627,o),
(1774,302,o),
(2172,302,cs)
);
}
);
userData = {
RMXScaler = {
height = 150;
verticalShift = -170;
width = 150;
};
};
width = 4344;
},
{
layerId = "5C20EF92-B63D-42A8-8878-93C2863E0093";
metricWidth = "=baseSymbol.large";
shapes = (
{
closed = 1;
nodes = (
(2570,302,o),
(2896,627,o),
(2896,1026,cs),
(2896,1424,o),
(2570,1750,o),
(2172,1750,cs),
(1774,1750,o),
(1448,1424,o),
(1448,1026,cs),
(1448,627,o),
(1774,302,o),
(2172,302,cs)
);
}
);
userData = {
RMXScaler = {
height = 150;
verticalShift = -170;
width = 150;
};
};
width = 4344;
}
);
userData = {
RMXScaler = {
source = iconDot2.small;
};
};
}
{
color = 11;
glyphname = iconExclamFill.small;
layers = (
{
layerId = "CD0E3B44-F66A-4791-B84C-A1128DC61275";
shapes = (
{
closed = 1;
nodes = (
(2115,-181,o),
(2655,359,o),
(2655,1026,cs),
(2655,1692,o),
(2115,2232,o),
(1448,2232,cs),
(781,2232,o),
(241,1692,o),
(241,1026,cs),
(241,359,o),
(781,-181,o),
(1448,-181,cs)
);
},
{
closed = 1;
nodes = (
(1358,302,o),
(1282,377,o),
(1282,468,cs),
(1282,558,o),
(1358,634,o),
(1448,634,cs),
(1539,634,o),
(1614,558,o),
(1614,468,cs),
(1614,377,o),
(1539,302,o),
(1448,302,cs)
);
},
{
closed = 1;
nodes = (
(1327,1750,l),
(1569,1750,l),
(1569,784,l),
(1327,784,l)
);
}
);
width = 2896;
},
{
layerId = "B1F27B51-9973-4381-9301-4FE46FE1CA59";
shapes = (
{
closed = 1;
nodes = (
(2115,-181,o),
(2655,359,o),
(2655,1026,cs),
(2655,1692,o),
(2115,2232,o),
(1448,2232,cs),
(781,2232,o),
(241,1692,o),
(241,1026,cs),
(241,359,o),
(781,-181,o),
(1448,-181,cs)
);
},
{
closed = 1;
nodes = (
(1396,372,o),
(1352,415,o),
(1352,468,cs),
(1352,520,o),
(1396,563,o),
(1448,563,cs),
(1500,563,o),
(1544,520,o),
(1544,468,cs),
(1544,415,o),
(1500,372,o),
(1448,372,cs)
);
},
{
closed = 1;
nodes = (
(1398,1748,l),
(1498,1748,l),
(1498,781,l),
(1398,781,l)
);
}
);
width = 2896;
},
{
layerId = "5C20EF92-B63D-42A8-8878-93C2863E0093";
shapes = (
{
closed = 1;
nodes = (
(2115,-181,o),
(2655,359,o),
(2655,1026,cs),
(2655,1692,o),
(2115,2232,o),
(1448,2232,cs),
(781,2232,o),
(241,1692,o),
(241,1026,cs),
(241,359,o),
(781,-181,o),
(1448,-181,cs)
);
},
{
closed = 1;
nodes = (
(1322,237,o),
(1218,342,o),
(1218,468,cs),
(1218,593,o),
(1322,698,o),
(1448,698,cs),
(1574,698,o),
(1678,593,o),
(1678,468,cs),
(1678,342,o),
(1574,237,o),
(1448,237,cs)
);
},
{
closed = 1;
nodes = (
(1263,1813,l),
(1633,1813,l),
(1633,879,l),
(1263,879,l)
);
}
);
width = 2896;
}
);
metricWidth = baseSymbol;
}
{
color = 11;
glyphname = iconExternal.large;
layers = (
{
layerId = "CD0E3B44-F66A-4791-B84C-A1128DC61275";
metricWidth = "=baseSymbol.large";
shapes = (
{
closed = 1;
nodes = (
(3330,-745,ls),
(3466,-745,o),
(3578,-630,o),
(3578,-495,cs),
(3578,1080,ls),
(3578,1155,o),
(3514,1219,o),
(3439,1219,cs),
(3361,1219,o),
(3297,1155,o),
(3297,1080,cs),
(3297,-456,ls),
(3297,-459,o),
(3294,-462,o),
(3288,-462,cs),
(691,-462,ls),
(688,-462,o),
(682,-459,o),
(682,-456,cs),
(682,2145,ls),
(682,2148,o),
(688,2151,o),
(691,2151,cs),
(2223,2151,ls),
(2302,2151,o),
(2365,2214,o),
(2365,2293,cs),
(2365,2371,o),
(2302,2434,o),
(2223,2434,cs),
(652,2434,ls),
(516,2434,o),
(401,2320,o),
(401,2184,cs),
(401,-495,ls),
(401,-630,o),
(516,-745,o),
(652,-745,cs)
);
},
{
closed = 1;
nodes = (
(1937,685,o),
(2024,697,o),
(2072,745,cs),
(3587,2259,l),
(3587,1623,ls),
(3587,1548,o),
(3650,1481,o),
(3729,1481,cs),
(3804,1481,o),
(3867,1545,o),
(3867,1623,cs),
(3867,2600,ls),
(3867,2631,o),
(3858,2667,o),
(3828,2700,cs),
(3798,2733,o),
(3756,2742,o),
(3729,2742,cs),
(2751,2742,ls),
(2673,2742,o),
(2609,2679,o),
(2609,2600,cs),
(2609,2522,o),
(2673,2459,o),
(2751,2459,cs),
(3391,2459,l),
(1873,944,ls),
(1819,890,o),
(1816,799,o),
(1873,745,cs)
);
}
);
userData = {
RMXScaler = {
height = 150;
verticalShift = -170;
width = 150;
};
};
width = 4344;
},
{
layerId = "B1F27B51-9973-4381-9301-4FE46FE1CA59";
metricWidth = "=baseSymbol.large";
shapes = (
{
closed = 1;
nodes = (
(3330,-675,ls),
(3427,-675,o),
(3510,-591,o),
(3510.008,-495,cs),
(3510,1212,ls),
(3510,1249,o),
(3479,1283,o),
(3439,1283,cs),
(3400,1283,o),
(3368,1249,o),
(3368,1212,cs),
(3368,-509,ls),
(3368,-522,o),
(3358,-532,o),
(3348,-532,cs),
(638,-532,ls),
(625,-532,o),
(614,-522,o),
(614,-509,cs),
(614,2198,ls),
(614,2211,o),
(625,2221,o),
(638,2221,cs),
(2359,2221,ls),
(2394,2221,o),
(2429,2253,o),
(2429,2293,cs),
(2429,2332,o),
(2394,2364,o),
(2359,2364,cs),
(652,2364,ls),
(555,2364,o),
(472,2281,o),
(472,2184,cs),
(472,-495,ls),
(472,-591,o),
(555,-675,o),
(652,-675,cs)
);
},
{
closed = 1;
nodes = (
(1948,769,o),
(1996,767,o),
(2023,794,cs),
(3657,2429,l),
(3657,1623,ls),
(3657,1583,o),
(3692,1552,o),
(3729,1552,cs),
(3769,1552,o),
(3800,1584,o),
(3800,1623,cs),
(3800,2600,ls),
(3800,2616,o),
(3795,2632,o),
(3779,2651,cs),
(3763,2670,o),
(3738,2672,o),
(3729,2672,cs),
(2751,2672,ls),
(2712,2672,o),
(2680,2640,o),
(2680,2600,cs),
(2680,2561,o),
(2712,2529,o),
(2751,2529,cs),
(3557,2529,l),
(1923,895,ls),
(1893,866,o),
(1893,825,o),
(1923,794,cs)
);
}
);
userData = {
RMXScaler = {
height = 150;
verticalShift = -170;
width = 150;
};
};
width = 4344;
},
{
layerId = "5C20EF92-B63D-42A8-8878-93C2863E0093";
metricWidth = "=baseSymbol.large";
shapes = (
{
closed = 1;
nodes = (
(3330,-826,ls),
(3511,-826,o),
(3661,-676,o),
(3661,-495,cs),
(3661,993,ls),
(3661,1116,o),
(3563,1215,o),
(3439,1215,cs),
(3315,1215,o),
(3217,1116,o),
(3217,993,cs),
(3217,-382,ls),
(3217,-381,o),
(3217,-381,o),
(3218,-381,cs),
(764,-381,ls),
(765,-381,o),
(765,-381,o),
(765,-382,cs),
(765,2071,ls),
(765,2070,o),
(765,2070,o),
(764,2070,cs),
(2139,2070,ls),
(2263,2070,o),
(2361,2169,o),
(2361,2293,cs),
(2361,2416,o),
(2263,2515,o),
(2139,2515,cs),
(652,2515,ls),
(471,2515,o),
(321,2365,o),
(321,2184,cs),
(321,-495,ls),
(321,-676,o),
(471,-826,o),
(652,-826,cs)
);
},
{
closed = 1;
nodes = (
(1915,595,o),
(2050,607,o),
(2134,691,cs),
(3506,2063,l),
(3506,1623,ls),
(3506,1499,o),
(3605,1401,o),
(3729,1401,cs),
(3852,1401,o),
(3951,1499,o),
(3951,1623,cs),
(3951,2600,ls),
(3951,2653,o),
(3932,2712,o),
(3885,2757,cs),
(3836,2806,o),
(3778,2823,o),
(3729,2823,cs),
(2751,2823,ls),
(2628,2823,o),
(2529,2724,o),
(2529,2600,cs),
(2529,2477,o),
(2628,2378,o),
(2751,2378,cs),
(3195,2378,l),
(1819,999,ls),
(1736,916,o),
(1730,773,o),
(1819,688,cs)
);
}
);
userData = {
RMXScaler = {
height = 150;
verticalShift = -170;
width = 150;
};
};
width = 4344;
}
);
userData = {
RMXScaler = {
source = iconExternal.small;
};
};
}
{
color = 11;
glyphname = iconEye.large;
layers = (
{
layerId = "CD0E3B44-F66A-4791-B84C-A1128DC61275";
metricWidth = "=baseSymbol.large";
shapes = (
{
closed = 1;
nodes = (
(2727,-202,o),
(3198,-9,o),
(3557,377,cs),
(3795,634,o),
(3904,893,o),
(3937,983,cs),
(3946,1008,o),
(3946,1041,o),
(3937,1068,cs),
(3925,1104,o),
(3819,1391,o),
(3557,1674,cs),
(3198,2060,o),
(2727,2253,o),
(2172,2253,cs),
(1647,2253,o),
(1158,2078,o),
(778,1662,cs),
(522,1382,o),
(419,1098,o),
(410,1071,cs),
(401,1044,o),
(398,1014,o),
(410,980,cs),
(419,953,o),
(522,670,o),
(778,389,cs),
(1158,-27,o),
(1647,-202,o),
(2172,-202,cs)
);
},
{
closed = 1;
nodes = (
(1701,81,o),
(1291,247,o),
(986,579,cs),
(818,766,o),
(739,926,o),
(694,1026,c),
(736,1116,o),
(821,1291,o),
(986,1472,cs),
(1291,1804,o),
(1701,1970,o),
(2172,1970,cs),
(2631,1970,o),
(3035,1816,o),
(3345,1487,cs),
(3523,1300,o),
(3620,1092,o),
(3650,1026,c),
(3614,947,o),
(3523,754,o),
(3345,564,cs),
(3035,235,o),
(2631,81,o),
(2172,81,cs)
);
},
{
closed = 1;
nodes = (
(2549,341,o),
(2857,649,o),
(2857,1026,cs),
(2857,1403,o),
(2549,1710,o),
(2172,1710,cs),
(1798,1710,o),
(1490,1403,o),
(1490,1026,cs),
(1490,649,o),
(1798,341,o),
(2172,341,cs)
);
},
{
closed = 1;
nodes = (
(1952,624,o),
(1771,805,o),
(1771,1026,cs),
(1771,1246,o),
(1952,1427,o),
(2172,1427,cs),
(2395,1427,o),
(2576,1246,o),
(2576,1026,cs),
(2576,805,o),
(2395,624,o),
(2172,624,cs)
);
}
);
userData = {
RMXScaler = {
height = 150;
verticalShift = -170;
width = 150;
};
};
width = 4344;
},
{
layerId = "B1F27B51-9973-4381-9301-4FE46FE1CA59";
metricWidth = "=baseSymbol.large";
shapes = (
{
closed = 1;
nodes = (
(2680,-132,o),
(3149,35,o),
(3516,435,cs),
(3760,700,o),
(3859,979,o),
(3866,1002,cs),
(3871,1018,o),
(3871,1037,o),
(3866,1050,cs),
(3850,1101,o),
(3748,1364,o),
(3516,1616,cs),
(3149,2016,o),
(2680,2183,o),
(2172,2183,cs),
(1681,2183,o),
(1217,2028,o),
(848,1639,cs),
(572,1346,o),
(477,1057,o),
(474,1047,cs),
(472,1037,o),
(469,1021,o),
(474,1006,cs),
(477,994,o),
(578,695,o),
(848,412,cs),
(1217,23,o),
(1681,-132,o),
(2172,-132,cs)
);
},
{
closed = 1;
nodes = (
(1710,11,o),
(1282,157,o),
(949,514,cs),
(753,725,o),
(655,936,o),
(616,1026,c),
(645,1092,o),
(746,1319,o),
(950,1538,cs),
(1283,1894,o),
(1711,2040,o),
(2172,2040,cs),
(2669,2040,o),
(3090,1869,o),
(3405,1523,cs),
(3601,1308,o),
(3698,1088,o),
(3725,1026,c),
(3688,941,o),
(3591,733,o),
(3405,528,cs),
(3076,168,o),
(2652,11,o),
(2172,11,cs)
);
},
{
closed = 1;
nodes = (
(2511,407,o),
(2787,687,o),
(2787,1026,cs),
(2787,1365,o),
(2511,1644,o),
(2172,1644,cs),
(1829,1644,o),
(1553,1365,o),
(1553,1026,cs),
(1553,687,o),
(1829,407,o),
(2172,407,cs)
);
},
{
closed = 1;
nodes = (
(1909,549,o),
(1695,766,o),
(1695,1026,cs),
(1695,1285,o),
(1909,1502,o),
(2172,1502,cs),
(2431,1502,o),
(2645,1285,o),
(2645,1026,cs),
(2645,766,o),
(2431,549,o),
(2172,549,cs)
);
}
);
userData = {
RMXScaler = {
height = 150;
verticalShift = -170;
width = 150;
};
};
width = 4344;
},
{
layerId = "5C20EF92-B63D-42A8-8878-93C2863E0093";
metricWidth = "=baseSymbol.large";
shapes = (
{
closed = 1;
nodes = (
(2820,-283,o),
(3306,-22,o),
(3636,345,cs),
(3935,677,o),
(4012,951,o),
(4014,958,cs),
(4029,1005,o),
(4029,1050,o),
(4014,1093,cs),
(4008,1107,o),
(3912,1401,o),
(3636,1706,cs),
(3306,2073,o),
(2820,2334,o),
(2172,2334,cs),
(1526,2334,o),
(1053,2073,o),
(736,1736,cs),
(449,1427,o),
(343,1121,o),
(333,1097,cs),
(318,1054,o),
(315,1004,o),
(333,954,cs),
(343,930,o),
(449,621,o),
(736,316,cs),
(1053,-22,o),
(1526,-283,o),
(2172,-283,cs)
);
},
{
closed = 1;
nodes = (
(1733,162,o),
(1357,312,o),
(1073,605,cs),
(910,773,o),
(823,945,o),
(783,1026,c),
(830,1123,o),
(907,1265,o),
(1041,1411,cs),
(1329,1727,o),
(1713,1889,o),
(2172,1889,cs),
(2617,1889,o),
(3009,1737,o),
(3303,1414,cs),
(3440,1265,o),
(3520,1114,o),
(3564,1026,c),
(3517,931,o),
(3443,789,o),
(3300,634,cs),
(3006,316,o),
(2617,162,o),
(2172,162,cs)
);
},
{
closed = 1;
nodes = (
(2572,299,o),
(2899,625,o),
(2899,1026,cs),
(2899,1426,o),
(2572,1753,o),
(2172,1753,cs),
(1772,1753,o),
(1445,1426,o),
(1445,1026,cs),
(1445,625,o),
(1772,299,o),
(2172,299,cs)
);
},
{
closed = 1;
nodes = (
(2019,743,o),
(1889,870,o),
(1889,1026,cs),
(1889,1182,o),
(2019,1308,o),
(2172,1308,cs),
(2328,1308,o),
(2455,1182,o),
(2455,1026,cs),
(2455,870,o),
(2328,743,o),
(2172,743,cs)
);
}
);
userData = {
RMXScaler = {
height = 150;
verticalShift = -170;
width = 150;
};
};
width = 4344;
}
);
userData = {
RMXScaler = {
source = iconEye.small;
};
};
}
{
color = 11;
glyphname = iconHeartFill.small;
layers = (
{
layerId = "CD0E3B44-F66A-4791-B84C-A1128DC61275";
shapes = (
{
closed = 1;
nodes = (
(1481,0,o),
(1511,12,o),
(1535,36,cs),
(2088,603,ls),
(2365,878,o),
(2546,1104,o),
(2546,1412,cs),
(2546,1789,o),
(2278,2051,o),
(1931,2051,cs),
(1729,2051,o),
(1557,1961,o),
(1448,1819,c),
(1339,1961,o),
(1167,2051,o),
(965,2051,cs),
(618,2051,o),
(350,1789,o),
(350,1412,cs),
(350,1104,o),
(531,878,o),
(808,603,cs),
(1361,36,ls),
(1385,12,o),
(1415,0,o),
(1448,0,cs)
);
}
);
width = 2896;
},
{
layerId = "B1F27B51-9973-4381-9301-4FE46FE1CA59";
shapes = (
{
closed = 1;
nodes = (
(1460,46,o),
(1476,51,o),
(1483,61,c),
(2038,628,ls),
(2316,906,o),
(2476,1112,o),
(2476,1388,cs),
(2476,1730,o),
(2235,1958,o),
(1931,1958,cs),
(1711,1958,o),
(1532,1842,o),
(1448,1663,c),
(1364,1842,o),
(1185,1958,o),
(965,1958,cs),
(661,1958,o),
(420,1730,o),
(420,1388,cs),
(420,1112,o),
(580,906,o),
(858,628,cs),
(1413,61,l),
(1420,51,o),
(1436,46,o),
(1448,46,cs)
);
}
);
width = 2896;
},
{
layerId = "5C20EF92-B63D-42A8-8878-93C2863E0093";
shapes = (
{
closed = 1;
nodes = (
(1497,-64,o),
(1547,-42,o),
(1581,-8,c),
(2136,559,ls),
(2410,834,o),
(2610,1076,o),
(2610,1412,cs),
(2610,1825,o),
(2313,2116,o),
(1931,2116,cs),
(1739,2116,o),
(1570,2042,o),
(1448,1920,c),
(1326,2042,o),
(1157,2116,o),
(965,2116,cs),
(583,2116,o),
(286,1825,o),
(286,1412,cs),
(286,1076,o),
(486,834,o),
(760,559,cs),
(1315,-8,l),
(1349,-42,o),
(1399,-64,o),
(1448,-64,cs)
);
}
);
width = 2896;
}
);
metricWidth = baseSymbol;
}
{
color = 11;
glyphname = iconMessage.large;
layers = (
{
layerId = "CD0E3B44-F66A-4791-B84C-A1128DC61275";
metricWidth = "=baseSymbol.large";
shapes = (
{
closed = 1;
nodes = (
(2145,-585,o),
(2232,-564,o),
(2278,-513,cs),
(2863,160,l),
(3801,160,ls),
(3876,160,o),
(3940,223,o),
(3940,302,cs),
(3940,2474,ls),
(3940,2552,o),
(3876,2615,o),
(3801,2615,cs),
(543,2615,ls),
(465,2615,o),
(401,2552,o),
(401,2474,cs),
(401,302,ls),
(401,223,o),
(465,160,o),
(543,160,cs),
(1795,160,ls),
(1873,160,o),
(1937,223,o),
(1937,302,cs),
(1937,380,o),
(1873,443,o),
(1795,443,cs),
(682,443,l),
(682,2332,l),
(3659,2332,l),
(3659,443,l),
(2796,443,ls),
(2766,443,o),
(2721,428,o),
(2691,392,cs),
(2066,-332,ls),
(2009,-398,o),
(2030,-486,o),
(2078,-528,cs)
);
},
{
closed = 1;
nodes = (
(1605,1207,o),
(1686,1288,o),
(1686,1388,cs),
(1686,1487,o),
(1605,1569,o),
(1505,1569,cs),
(1406,1569,o),
(1324,1487,o),
(1324,1388,cs),
(1324,1288,o),
(1406,1207,o),
(1505,1207,cs)
);
},
{
closed = 1;
nodes = (
(2272,1207,o),
(2353,1288,o),
(2353,1388,cs),
(2353,1487,o),
(2272,1569,o),
(2172,1569,cs),
(2072,1569,o),
(1991,1487,o),
(1991,1388,cs),
(1991,1288,o),
(2072,1207,o),
(2172,1207,cs)
);
},
{
closed = 1;
nodes = (
(2935,1207,o),
(3017,1288,o),
(3017,1388,cs),
(3017,1487,o),
(2935,1569,o),
(2836,1569,cs),
(2736,1569,o),
(2655,1487,o),
(2655,1388,cs),
(2655,1288,o),
(2736,1207,o),
(2836,1207,cs)
);
}
);
userData = {
RMXScaler = {
height = 150;
verticalShift = -170;
width = 150;
};
};
width = 4344;
},
{
layerId = "B1F27B51-9973-4381-9301-4FE46FE1CA59";
metricWidth = "=baseSymbol.large";
shapes = (
{
closed = 1;
nodes = (
(2156,-505,o),
(2204,-493,o),
(2224,-471,cs),
(2835,230,l),
(3801,230,ls),
(3841,230,o),
(3872,262,o),
(3872.008,302,cs),
(3872.008,2474,ls),
(3872,2513,o),
(3841,2545,o),
(3801,2545,cs),
(543,2545,ls),
(504,2545,o),
(472,2513,o),
(472,2474,cs),
(472,302,ls),
(472,262,o),
(504,230,o),
(543,230,cs),
(1798,230,ls),
(1834,230,o),
(1869,262,o),
(1869.008,302,cs),
(1869,341,o),
(1834,373,o),
(1798,373,cs),
(614,373,l),
(614,2402,l),
(3730,2402,l),
(3730,373,l),
(2796,373,ls),
(2784,373,o),
(2756,365,o),
(2744,350,cs),
(2120,-374,ls),
(2097,-399,o),
(2095,-447,o),
(2125,-475,cs)
);
},
{
closed = 1;
nodes = (
(1608,1207,o),
(1689,1288,o),
(1689,1388,cs),
(1689,1487,o),
(1608,1569,o),
(1508,1569,cs),
(1409,1569,o),
(1327,1487,o),
(1327,1388,cs),
(1327,1288,o),
(1409,1207,o),
(1508,1207,cs)
);
},
{
closed = 1;
nodes = (
(2272,1207,o),
(2353,1288,o),
(2353,1388,cs),
(2353,1487,o),
(2272,1569,o),
(2172,1569,cs),
(2072,1569,o),
(1991,1487,o),
(1991,1388,cs),
(1991,1288,o),
(2072,1207,o),
(2172,1207,cs)
);
},
{
closed = 1;
nodes = (
(2938,1207,o),
(3020,1288,o),
(3020,1388,cs),
(3020,1487,o),
(2938,1569,o),
(2839,1569,cs),
(2739,1569,o),
(2658,1487,o),
(2658,1388,cs),
(2658,1288,o),
(2739,1207,o),
(2839,1207,cs)
);
}
);
userData = {
RMXScaler = {
height = 150;
verticalShift = -170;
width = 150;
};
};
width = 4344;
},
{
layerId = "5C20EF92-B63D-42A8-8878-93C2863E0093";
metricWidth = "=baseSymbol.large";
shapes = (
{
closed = 1;
nodes = (
(2117,-666,o),
(2254,-664,o),
(2339,-567,cs),
(2901,79,l),
(3801,79,ls),
(3925,79,o),
(4023,178,o),
(4023,302,cs),
(4023,2474,ls),
(4023,2597,o),
(3925,2696,o),
(3801,2696,cs),
(543,2696,ls),
(419,2696,o),
(321,2597,o),
(321,2474,cs),
(321,302,ls),
(321,178,o),
(419,79,o),
(543,79,cs),
(1798,79,ls),
(1919,79,o),
(2020,178,o),
(2020,302,cs),
(2020,425,o),
(1919,524,o),
(1798,524,cs),
(765,524,l),
(765,2251,l),
(3579,2251,l),
(3579,524,l),
(2796,524,ls),
(2728,524,o),
(2670,493,o),
(2630,446,cs),
(2005,-278,ls),
(1919,-376,o),
(1941,-515,o),
(2027,-589,cs)
);
},
{
closed = 1;
nodes = (
(1608,1207,o),
(1689,1288,o),
(1689,1388,cs),
(1689,1487,o),
(1608,1569,o),
(1508,1569,cs),
(1409,1569,o),
(1327,1487,o),
(1327,1388,cs),
(1327,1288,o),
(1409,1207,o),
(1508,1207,cs)
);
},
{
closed = 1;
nodes = (
(2272,1207,o),
(2353,1288,o),
(2353,1388,cs),
(2353,1487,o),
(2272,1569,o),
(2172,1569,cs),
(2072,1569,o),
(1991,1487,o),
(1991,1388,cs),
(1991,1288,o),
(2072,1207,o),
(2172,1207,cs)
);
},
{
closed = 1;
nodes = (
(2938,1207,o),
(3020,1288,o),
(3020,1388,cs),
(3020,1487,o),
(2938,1569,o),
(2839,1569,cs),
(2739,1569,o),
(2658,1487,o),
(2658,1388,cs),
(2658,1288,o),
(2739,1207,o),
(2839,1207,cs)
);
}
);
userData = {
RMXScaler = {
height = 150;
verticalShift = -170;
width = 150;
};
};
width = 4344;
}
);
userData = {
RMXScaler = {
source = iconMessage.small;
};
};
}
{
color = 11;
glyphname = iconMessage.small;
layers = (
{
layerId = "CD0E3B44-F66A-4791-B84C-A1128DC61275";
shapes = (
{
closed = 1;
nodes = (
(1421,-75,o),
(1496,-69,o),
(1539,-18,cs),
(1922,422,l),
(2534,422,ls),
(2600,422,o),
(2655,477,o),
(2655,543,cs),
(2655,1991,ls),
(2655,2057,o),
(2600,2112,o),
(2534,2112,cs),
(362,2112,ls),
(296,2112,o),
(241,2057,o),
(241,1991,cs),
(241,543,ls),
(241,477,o),
(296,422,o),
(362,422,cs),
(1198,422,ls),
(1264,422,o),
(1318,477,o),
(1318,543,cs),
(1318,609,o),
(1264,664,o),
(1198,664,cs),
(483,664,l),
(483,1870,l),
(2413,1870,l),
(2413,664,l),
(1864,664,ls),
(1831,664,o),
(1798,649,o),
(1774,621,cs),
(1358,139,ls),
(1312,87,o),
(1318,12,o),
(1370,-30,cs)
);
},
{
closed = 1;
nodes = (
(1071,1146,o),
(1125,1201,o),
(1125,1267,cs),
(1125,1333,o),
(1071,1388,o),
(1005,1388,cs),
(938,1388,o),
(884,1333,o),
(884,1267,cs),
(884,1201,o),
(938,1146,o),
(1005,1146,cs)
);
},
{
closed = 1;
nodes = (
(1514,1146,o),
(1569,1201,o),
(1569,1267,cs),
(1569,1333,o),
(1514,1388,o),
(1448,1388,cs),
(1382,1388,o),
(1327,1333,o),
(1327,1267,cs),
(1327,1201,o),
(1382,1146,o),
(1448,1146,cs)
);
},
{
closed = 1;
nodes = (
(1958,1146,o),
(2012,1201,o),
(2012,1267,cs),
(2012,1333,o),
(1958,1388,o),
(1891,1388,cs),
(1825,1388,o),
(1771,1333,o),
(1771,1267,cs),
(1771,1201,o),
(1825,1146,o),
(1891,1146,cs)
);
}
);
width = 2896;
},
{
layerId = "B1F27B51-9973-4381-9301-4FE46FE1CA59";
shapes = (
{
closed = 1;
nodes = (
(1435,5,o),
(1468,8,o),
(1486,27,cs),
(1890,493,l),
(2534,493,ls),
(2562,493,o),
(2584,515,o),
(2584,543,cs),
(2584,1991,ls),
(2584,2019,o),
(2562,2041,o),
(2534,2041,cs),
(362,2041,ls),
(334,2041,o),
(312,2019,o),
(312,1991,cs),
(312,543,ls),
(312,515,o),
(334,493,o),
(362,493,cs),
(1198,493,ls),
(1226,493,o),
(1248,515,o),
(1248,543,cs),
(1248,571,o),
(1226,593,o),
(1198,593,cs),
(412,593,l),
(412,1941,l),
(2484,1941,l),
(2484,593,l),
(1864,593,ls),
(1852,593,o),
(1836,585,o),
(1826,576,cs),
(1410,94,ls),
(1393,73,o),
(1396,40,o),
(1415,22,cs)
);
},
{
closed = 1;
nodes = (
(1071,1146,o),
(1125,1201,o),
(1125,1267,cs),
(1125,1333,o),
(1071,1388,o),
(1005,1388,cs),
(938,1388,o),
(884,1333,o),
(884,1267,cs),
(884,1201,o),
(938,1146,o),
(1005,1146,cs)
);
},
{
closed = 1;
nodes = (
(1514,1146,o),
(1569,1201,o),
(1569,1267,cs),
(1569,1333,o),
(1514,1388,o),
(1448,1388,cs),
(1382,1388,o),
(1327,1333,o),
(1327,1267,cs),
(1327,1201,o),
(1382,1146,o),
(1448,1146,cs)
);
},
{
closed = 1;
nodes = (
(1958,1146,o),
(2012,1201,o),
(2012,1267,cs),
(2012,1333,o),
(1958,1388,o),
(1891,1388,cs),
(1825,1388,o),
(1771,1333,o),
(1771,1267,cs),
(1771,1201,o),
(1825,1146,o),
(1891,1146,cs)
);
}
);
width = 2896;
},
{
layerId = "5C20EF92-B63D-42A8-8878-93C2863E0093";
shapes = (
{
closed = 1;
nodes = (
(1405,-147,o),
(1522,-137,o),
(1587,-60,cs),
(1951,358,l),
(2534,358,ls),
(2636,358,o),
(2719,441,o),
(2719,543,cs),
(2719,1991,ls),
(2719,2093,o),
(2636,2176,o),
(2534,2176,cs),
(362,2176,ls),
(260,2176,o),
(177,2093,o),
(177,1991,cs),
(177,543,ls),
(177,441,o),
(260,358,o),
(362,358,cs),
(1198,358,ls),
(1299,358,o),
(1383,441,o),
(1383,543,cs),
(1383,645,o),
(1299,728,o),
(1198,728,cs),
(547,728,l),
(547,1806,l),
(2349,1806,l),
(2349,728,l),
(1864,728,ls),
(1812,728,o),
(1763,704,o),
(1726,664,cs),
(1309,181,ls),
(1241,104,o),
(1251,-14,o),
(1327,-78,cs)
);
},
{
closed = 1;
nodes = (
(1071,1146,o),
(1125,1201,o),
(1125,1267,cs),
(1125,1333,o),
(1071,1388,o),
(1005,1388,cs),
(938,1388,o),
(884,1333,o),
(884,1267,cs),
(884,1201,o),
(938,1146,o),
(1005,1146,cs)
);
},
{
closed = 1;
nodes = (
(1514,1146,o),
(1569,1201,o),
(1569,1267,cs),
(1569,1333,o),
(1514,1388,o),
(1448,1388,cs),
(1382,1388,o),
(1327,1333,o),
(1327,1267,cs),
(1327,1201,o),
(1382,1146,o),
(1448,1146,cs)
);
},
{
closed = 1;
nodes = (
(1958,1146,o),
(2012,1201,o),
(2012,1267,cs),
(2012,1333,o),
(1958,1388,o),
(1891,1388,cs),
(1825,1388,o),
(1771,1333,o),
(1771,1267,cs),
(1771,1201,o),
(1825,1146,o),
(1891,1146,cs)
);
}
);
width = 2896;
}
);
metricWidth = baseSymbol;
}
{
color = 11;
glyphname = iconNeithStation.large;
layers = (
{
layerId = "CD0E3B44-F66A-4791-B84C-A1128DC61275";
metricWidth = "=baseSymbol.large";
shapes = (
{
closed = 1;
nodes = (
(3373,-1146,o),
(4344,-175,o),
(4344,1026,cs),
(4344,2226,o),
(3373,3198,o),
(2172,3198,cs),
(974,3198,o),
(0,2226,o),
(0,1026,cs),
(0,-175,o),
(974,-1146,o),
(2172,-1146,cs)
);
},
{
closed = 1;
nodes = (
(1122,-736,o),
(733,-431,o),
(483,-30,c),
(996,139,l),
(1146,-60,o),
(1348,-223,o),
(1584,-323,c),
(1584,-875,l)
);
},
{
closed = 1;
nodes = (
(1457,21,o),
(1342,112,o),
(1243,220,c),
(1584,335,l),
(1584,-48,l)
);
},
{
closed = 1;
nodes = (
(2299,-437,l),
(2730,-401,o),
(3104,-184,o),
(3349,139,c),
(3858,-30,l),
(3530,-558,o),
(2959,-923,o),
(2299,-962,c)
);
},
{
closed = 1;
nodes = (
(2299,338,l),
(2742,338,l),
(3095,220,l),
(2896,-6,o),
(2615,-154,o),
(2299,-187,c)
);
},
{
closed = 1;
nodes = (
(2009,-965,o),
(1840,-944,o),
(1683,-908,c),
(1683,694,l),
(1584,694,l),
(1584,428,l),
(968,244,l),
(1433,1846,ls),
(1520,2148,o),
(1843,2347,o),
(2193,2347,cs),
(2525,2347,o),
(2802,2163,o),
(2923,1904,c),
(2941,1904,o),
(2962,1907,o),
(2980,1925,cs),
(3011,1955,o),
(3011,2000,o),
(2977,2030,cs),
(2851,2145,ls),
(2757,2229,o),
(2754,2374,o),
(2836,2462,cs),
(2923,2555,o),
(3062,2549,o),
(3149,2474,cs),
(3192,2437,ls),
(3228,2407,o),
(3222,2353,o),
(3198,2329,cs),
(3164,2296,o),
(3119,2305,o),
(3092,2326,cs),
(3050,2359,ls),
(3014,2386,o),
(2971,2386,o),
(2944,2356,cs),
(2920,2329,o),
(2920,2284,o),
(2950,2256,cs),
(3077,2142,ls),
(3174,2054,o),
(3174,1913,o),
(3095,1828,cs),
(3059,1789,o),
(3014,1753,o),
(2923,1753,cs),
(2205,1753,l),
(2205,-965,l),
(2172,-965,ls)
);
},
{
closed = 1;
nodes = (
(2299,1382,l),
(2416,1388,l),
(2444,1370,o),
(2522,1333,o),
(2591,1333,cs),
(2661,1333,o),
(2736,1376,o),
(2772,1403,c),
(2842,1397,l),
(2821,1487,l),
(2796,1493,o),
(2757,1505,o),
(2706,1511,c),
(2709,1499,o),
(2715,1475,o),
(2715,1469,cs),
(2715,1427,o),
(2679,1394,o),
(2637,1394,cs),
(2591,1394,o),
(2555,1427,o),
(2555,1469,cs),
(2555,1475,o),
(2561,1499,o),
(2564,1511,c),
(2480,1499,o),
(2416,1478,o),
(2320,1448,c),
(2299,1448,l),
(2299,1659,l),
(2890,1659,l),
(2896,1623,o),
(2902,1584,o),
(2902,1545,cs),
(2902,1505,l),
(3086,1170,l),
(2905,1104,l),
(2905,721,l),
(2646,721,l),
(2646,437,l),
(2299,437,l)
);
}
);
userData = {
RMXScaler = {
height = 150;
verticalShift = -170;
width = 150;
};
};
width = 4344;
},
{
layerId = "B1F27B51-9973-4381-9301-4FE46FE1CA59";
metricWidth = "=baseSymbol.large";
shapes = (
{
closed = 1;
nodes = (
(3373,-1146,o),
(4344,-172,o),
(4344,1026,cs),
(4344,2226,o),
(3373,3198,o),
(2172,3198,cs),
(974,3198,o),
(0,2226,o),
(0,1026,cs),
(0,-172,o),
(974,-1146,o),
(2172,-1146,cs)
);
},
{
closed = 1;
nodes = (
(1122,-736,o),
(733,-431,o),
(486,-30,c),
(996,139,l),
(1146,-60,o),
(1348,-223,o),
(1584,-323,c),
(1584,-875,l)
);
},
{
closed = 1;
nodes = (
(1457,21,o),
(1345,112,o),
(1246,220,c),
(1584,335,l),
(1584,-48,l)
);
},
{
closed = 1;
nodes = (
(2299,-437,l),
(2730,-401,o),
(3104,-184,o),
(3349,139,c),
(3861,-30,l),
(3530,-561,o),
(2959,-923,o),
(2299,-962,c)
);
},
{
closed = 1;
nodes = (
(2299,338,l),
(2742,338,l),
(3095,220,l),
(2896,-6,o),
(2615,-154,o),
(2299,-187,c)
);
},
{
closed = 1;
nodes = (
(2009,-965,o),
(1840,-944,o),
(1683,-908,c),
(1683,697,l),
(1584,697,l),
(1584,428,l),
(968,244,l),
(1433,1846,ls),
(1520,2148,o),
(1843,2347,o),
(2196,2347,cs),
(2525,2347,o),
(2802,2163,o),
(2923,1904,c),
(2941,1904,o),
(2962,1907,o),
(2980,1925,cs),
(3011,1955,o),
(3011,2000,o),
(2977,2030,cs),
(2851,2145,ls),
(2757,2229,o),
(2754,2374,o),
(2836,2462,cs),
(2923,2555,o),
(3062,2549,o),
(3149,2474,cs),
(3192,2437,ls),
(3228,2407,o),
(3222,2353,o),
(3198,2329,cs),
(3164,2296,o),
(3119,2305,o),
(3092,2326,cs),
(3050,2359,ls),
(3014,2386,o),
(2971,2386,o),
(2944,2356,cs),
(2920,2329,o),
(2920,2284,o),
(2950,2256,cs),
(3077,2142,ls),
(3171,2057,o),
(3177,1916,o),
(3095,1828,cs),
(3056,1786,o),
(3007,1756,o),
(2923,1756,cs),
(2205,1756,l),
(2205,-965,l),
(2172,-965,ls)
);
},
{
closed = 1;
nodes = (
(2299,1385,l),
(2416,1388,l),
(2444,1370,o),
(2522,1333,o),
(2594,1333,cs),
(2664,1333,o),
(2743,1379,o),
(2775,1403,c),
(2842,1397,l),
(2821,1487,l),
(2796,1493,o),
(2757,1505,o),
(2706,1511,c),
(2709,1499,o),
(2715,1475,o),
(2715,1469,cs),
(2715,1427,o),
(2679,1394,o),
(2640,1394,cs),
(2594,1394,o),
(2558,1424,o),
(2558,1469,cs),
(2558,1475,o),
(2564,1499,o),
(2567,1511,c),
(2483,1499,o),
(2419,1481,o),
(2323,1448,c),
(2299,1448,l),
(2299,1659,l),
(2893,1659,l),
(2899,1613,o),
(2902,1571,o),
(2902,1548,cs),
(2902,1505,l),
(3086,1170,l),
(2905,1104,l),
(2905,724,l),
(2649,724,l),
(2649,437,l),
(2299,437,l)
);
}
);
userData = {
RMXScaler = {
height = 150;
verticalShift = -170;
width = 150;
};
};
width = 4344;
},
{
layerId = "5C20EF92-B63D-42A8-8878-93C2863E0093";
metricWidth = "=baseSymbol.large";
shapes = (
{
closed = 1;
nodes = (
(3373,-1146,o),
(4344,-175,o),
(4344,1026,cs),
(4344,2226,o),
(3373,3198,o),
(2172,3198,cs),
(974,3198,o),
(0,2226,o),
(0,1026,cs),
(0,-175,o),
(974,-1146,o),
(2172,-1146,cs)
);
},
{
closed = 1;
nodes = (
(1122,-736,o),
(733,-431,o),
(486,-30,c),
(996,139,l),
(1146,-60,o),
(1348,-223,o),
(1584,-323,c),
(1584,-875,l)
);
},
{
closed = 1;
nodes = (
(1457,21,o),
(1345,112,o),
(1246,220,c),
(1584,335,l),
(1584,-48,l)
);
},
{
closed = 1;
nodes = (
(2299,-437,l),
(2730,-401,o),
(3104,-184,o),
(3349,139,c),
(3861,-30,l),
(3530,-561,o),
(2959,-923,o),
(2299,-962,c)
);
},
{
closed = 1;
nodes = (
(2299,338,l),
(2742,338,l),
(3095,220,l),
(2896,-6,o),
(2615,-157,o),
(2299,-187,c)
);
},
{
closed = 1;
nodes = (
(2009,-965,o),
(1840,-944,o),
(1683,-908,c),
(1683,697,l),
(1584,697,l),
(1584,428,l),
(968,244,l),
(1433,1846,ls),
(1520,2148,o),
(1843,2347,o),
(2196,2347,cs),
(2525,2347,o),
(2802,2163,o),
(2923,1904,c),
(2944,1904,o),
(2962,1907,o),
(2983,1928,cs),
(3014,1958,o),
(3008,2003,o),
(2977,2030,cs),
(2851,2145,ls),
(2760,2226,o),
(2751,2371,o),
(2836,2462,cs),
(2926,2558,o),
(3065,2546,o),
(3149,2474,cs),
(3192,2437,ls),
(3228,2407,o),
(3222,2353,o),
(3198,2329,cs),
(3164,2296,o),
(3119,2305,o),
(3092,2326,cs),
(3050,2359,ls),
(3014,2386,o),
(2971,2386,o),
(2944,2356,cs),
(2920,2329,o),
(2920,2284,o),
(2950,2256,cs),
(3077,2142,ls),
(3171,2057,o),
(3177,1916,o),
(3095,1828,cs),
(3056,1786,o),
(3008,1756,o),
(2923,1756,cs),
(2205,1756,l),
(2205,-965,l),
(2172,-965,ls)
);
},
{
closed = 1;
nodes = (
(2299,1385,l),
(2416,1388,l),
(2444,1370,o),
(2522,1333,o),
(2594,1333,cs),
(2664,1333,o),
(2742,1379,o),
(2775,1403,c),
(2842,1397,l),
(2821,1487,l),
(2796,1493,o),
(2757,1505,o),
(2706,1511,c),
(2709,1499,o),
(2715,1475,o),
(2715,1469,cs),
(2715,1427,o),
(2679,1394,o),
(2640,1394,cs),
(2594,1394,o),
(2558,1424,o),
(2558,1469,cs),
(2558,1475,o),
(2564,1499,o),
(2567,1511,c),
(2483,1499,o),
(2419,1481,o),
(2323,1448,c),
(2299,1448,l),
(2299,1659,l),
(2893,1659,l),
(2899,1614,o),
(2902,1572,o),
(2902,1548,cs),
(2902,1505,l),
(3086,1170,l),
(2905,1104,l),
(2905,724,l),
(2649,724,l),
(2649,437,l),
(2299,437,l)
);
}
);
userData = {
RMXScaler = {
height = 150;
verticalShift = -170;
width = 150;
};
};
width = 4344;
}
);
userData = {
RMXScaler = {
source = iconNeithStation.small;
};
};
}
{
color = 11;
glyphname = iconSorting.large;
layers = (
{
layerId = "CD0E3B44-F66A-4791-B84C-A1128DC61275";
metricWidth = "=baseSymbol.large";
shapes = (
{
closed = 1;
nodes = (
(833,1683,o),
(905,1680,o),
(953,1729,cs),
(1394,2166,l),
(1831,1729,ls),
(1876,1683,o),
(1952,1683,o),
(1997,1729,cs),
(2039,1771,o),
(2039,1843,o),
(1994,1888,cs),
(1475,2410,ls),
(1454,2431,o),
(1427,2444,o),
(1394,2444,cs),
(1367,2444,o),
(1333,2437,o),
(1306,2410,cs),
(787,1888,ls),
(739,1840,o),
(745,1765,o),
(787,1726,cs)
);
},
{
closed = 1;
nodes = (
(1454,-392,o),
(1508,-344,o),
(1508,-278,cs),
(1508,2329,ls),
(1508,2395,o),
(1454,2444,o),
(1394,2444,cs),
(1327,2444,o),
(1279,2392,o),
(1279,2329,cs),
(1279,-278,ls),
(1279,-341,o),
(1327,-392,o),
(1394,-392,cs)
);
},
{
closed = 1;
nodes = (
(2987,-392,o),
(3014,-380,o),
(3035,-359,cs),
(3557,163,ls),
(3602,208,o),
(3599,281,o),
(3557,323,cs),
(3505,374,o),
(3433,362,o),
(3394,323,cs),
(2953,-115,l),
(2516,323,ls),
(2471,368,o),
(2398,371,o),
(2350,326,cs),
(2305,281,o),
(2305,208,o),
(2350,163,cs),
(2875,-359,l),
(2893,-380,o),
(2923,-392,o),
(2953,-392,cs)
);
},
{
closed = 1;
nodes = (
(3020,-392,o),
(3071,-341,o),
(3071,-278,cs),
(3071,2329,ls),
(3071,2392,o),
(3020,2444,o),
(2953,2444,cs),
(2890,2444,o),
(2839,2392,o),
(2839,2329,cs),
(2839,-278,ls),
(2839,-341,o),
(2890,-392,o),
(2953,-392,cs)
);
}
);
userData = {
RMXScaler = {
height = 150;
verticalShift = -170;
width = 150;
};
};
width = 4344;
},
{
layerId = "B1F27B51-9973-4381-9301-4FE46FE1CA59";
metricWidth = "=baseSymbol.large";
shapes = (
{
closed = 1;
nodes = (
(843,1722,o),
(894,1718,o),
(928,1754,cs),
(1394,2215,l),
(1856,1754,ls),
(1890,1718,o),
(1942,1726,o),
(1969,1750,cs),
(2000,1778,o),
(2004,1829,o),
(1969,1863,cs),
(1451,2385,ls),
(1436,2399,o),
(1417,2411,o),
(1394,2411,cs),
(1367,2411,o),
(1347,2399,o),
(1334,2385,cs),
(812,1863,ls),
(778,1829,o),
(784,1775,o),
(812,1751,cs)
);
},
{
closed = 1;
nodes = (
(1440,-360,o),
(1476,-320,o),
(1476,-278,cs),
(1476,2329,ls),
(1476,2371,o),
(1440,2411,o),
(1394,2411,cs),
(1345,2411,o),
(1311,2374,o),
(1311,2329,cs),
(1311,-278,ls),
(1311,-323,o),
(1345,-360,o),
(1394,-360,cs)
);
},
{
closed = 1;
nodes = (
(2976,-360,o),
(2996,-348,o),
(3010,-334,cs),
(3533,188,ls),
(3564,219,o),
(3564,274,o),
(3532,302,cs),
(3501,329,o),
(3453,333,o),
(3419,298,cs),
(2953,-164,l),
(2492,298,ls),
(2460,329,o),
(2409,332,o),
(2378,301,cs),
(2350,274,o),
(2344,222,o),
(2378,188,cs),
(2900,-334,l),
(2911,-352,o),
(2937,-360,o),
(2953,-360,cs)
);
},
{
closed = 1;
nodes = (
(2999,-360,o),
(3036,-323,o),
(3036,-278,cs),
(3036,2329,ls),
(3036,2374,o),
(2999,2411,o),
(2953,2411,cs),
(2911,2411,o),
(2874,2374,o),
(2874,2329,cs),
(2874,-278,ls),
(2874,-323,o),
(2911,-360,o),
(2953,-360,cs)
);
}
);
userData = {
RMXScaler = {
height = 150;
verticalShift = -170;
width = 150;
};
};
width = 4344;
},
{
layerId = "5C20EF92-B63D-42A8-8878-93C2863E0093";
metricWidth = "=baseSymbol.large";
shapes = (
{
closed = 1;
nodes = (
(830,1629,o),
(927,1642,o),
(982,1696,cs),
(1394,2109,l),
(1802,1696,ls),
(1860,1638,o),
(1958,1635,o),
(2023,1696,cs),
(2091,1761,o),
(2080,1859,o),
(2023,1918,cs),
(1501,2439,ls),
(1473,2467,o),
(1437,2485,o),
(1394,2485,cs),
(1353,2485,o),
(1311,2473,o),
(1277,2439,cs),
(758,1918,ls),
(697,1856,o),
(697,1759,o),
(758,1696,cs)
);
},
{
closed = 1;
nodes = (
(1476,-433,o),
(1550,-366,o),
(1550,-278,cs),
(1550,2329,ls),
(1550,2417,o),
(1476,2485,o),
(1394,2485,cs),
(1305,2485,o),
(1238,2414,o),
(1238,2329,cs),
(1238,-278,ls),
(1238,-363,o),
(1305,-433,o),
(1394,-433,cs)
);
},
{
closed = 1;
nodes = (
(2993,-433,o),
(3033,-418,o),
(3064,-388,cs),
(3583,134,ls),
(3644,195,o),
(3647,294,o),
(3586,355,cs),
(3527,412,o),
(3430,419,o),
(3365,355,cs),
(2953,-57,l),
(2542,355,ls),
(2484,413,o),
(2385,419,o),
(2321,355,cs),
(2263,297,o),
(2256,198,o),
(2321,134,cs),
(2843,-388,l),
(2871,-415,o),
(2910,-433,o),
(2953,-433,cs)
);
},
{
closed = 1;
nodes = (
(3042,-433,o),
(3109,-363,o),
(3109,-278,cs),
(3109,2329,ls),
(3109,2414,o),
(3042,2485,o),
(2953,2485,cs),
(2868,2485,o),
(2796,2417,o),
(2796,2329,cs),
(2796,-278,ls),
(2796,-366,o),
(2868,-433,o),
(2953,-433,cs)
);
}
);
userData = {
RMXScaler = {
height = 150;
verticalShift = -170;
width = 150;
};
};
width = 4344;
}
);
userData = {
RMXScaler = {
source = iconSorting.small;
};
};
}
{
color = 8;
glyphname = k.ss20;
layers = (
{
guides = (
{
angle = 90;
pos = (514,1952);
}
);
layerId = "5C20EF92-B63D-42A8-8878-93C2863E0093";
shapes = (
{
closed = 1;
nodes = (
(1036,732,l),
(1182,732,l),
(1904,1536,l),
(1276,1536,l),
(794,1020,l),
(718,1020,l),
(716,364,l)
);
},
{
closed = 1;
nodes = (
(770,0,l),
(770,2048,l),
(216,2048,l),
(216,0,l)
);
},
{
closed = 1;
nodes = (
(1928,0,l),
(1204,1000,l),
(840,608,l),
(1288,0,l)
);
}
);
userData = {
RMXScaler = {
width = 112.5;
};
};
width = 1984;
},
{
guides = (
{
angle = 90;
pos = (606,2408);
}
);
layerId = "B1F27B51-9973-4381-9301-4FE46FE1CA59";
shapes = (
{
closed = 1;
nodes = (
(634,840,l),
(642,848,l),
(1342,1536,l),
(1250,1536,l),
(434,736,l),
(410,736,l),
(410,620,l)
);
},
{
closed = 1;
nodes = (
(426,0,l),
(426,2048,l),
(362,2048,l),
(362,0,l)
);
},
{
closed = 1;
nodes = (
(1366,0,l),
(658,888,l),
(610,848,l),
(1282,0,l)
);
}
);
width = 1600;
},
{
layerId = "CD0E3B44-F66A-4791-B84C-A1128DC61275";
shapes = (
{
closed = 1;
nodes = (
(836,810,l),
(858,810,l),
(1572,1536,l),
(1272,1536,l),
(608,856,l),
(560,856,l),
(564,556,l)
);
},
{
closed = 1;
nodes = (
(580,0,l),
(580,2048,l),
(336,2048,l),
(336,0,l)
);
},
{
closed = 1;
nodes = (
(1620,0,l),
(890,926,l),
(718,756,l),
(1312,0,l)
);
}
);
vertWidth = 0;
width = 1780;
}
);
userData = {
RMXScaler = {
source = k;
};
"interface.width-adjustments" = (
-16
);
};
}
{
color = 11;
glyphname = logoEth.small;
layers = (
{
layerId = "CD0E3B44-F66A-4791-B84C-A1128DC61275";
shapes = (
{
closed = 1;
nodes = (
(2317,999,l),
(1448,2440,l),
(579,999,l),
(1448,486,l)
);
},
{
closed = 1;
nodes = (
(2317,836,l),
(1448,323,l),
(579,836,l),
(1448,-389,l)
);
}
);
width = 2896;
},
{
layerId = "B1F27B51-9973-4381-9301-4FE46FE1CA59";
shapes = (
{
closed = 1;
nodes = (
(2317,999,l),
(1448,2440,l),
(579,999,l),
(1448,486,l)
);
},
{
closed = 1;
nodes = (
(2317,836,l),
(1448,323,l),
(579,836,l),
(1448,-389,l)
);
}
);
width = 2896;
},
{
layerId = "5C20EF92-B63D-42A8-8878-93C2863E0093";
shapes = (
{
closed = 1;
nodes = (
(2317,999,l),
(1448,2440,l),
(579,999,l),
(1448,486,l)
);
},
{
closed = 1;
nodes = (
(2317,836,l),
(1448,323,l),
(579,836,l),
(1448,-389,l)
);
}
);
width = 2896;
}
);
metricWidth = baseSymbol;
}
{
color = 11;
glyphname = logoEthFill.small;
layers = (
{
layerId = "CD0E3B44-F66A-4791-B84C-A1128DC61275";
shapes = (
{
closed = 1;
nodes = (
(2247,-422,o),
(2896,226,o),
(2896,1026,cs),
(2896,1825,o),
(2247,2474,o),
(1448,2474,cs),
(649,2474,o),
(0,1825,o),
(0,1026,cs),
(0,226,o),
(649,-422,o),
(1448,-422,cs)
);
},
{
closed = 1;
nodes = (
(881,902,l),
(1448,567,l),
(2015,902,l),
(1448,106,l)
);
},
{
closed = 1;
nodes = (
(881,1008,l),
(1448,1946,l),
(2012,1008,l),
(1448,673,l)
);
}
);
width = 2896;
},
{
layerId = "B1F27B51-9973-4381-9301-4FE46FE1CA59";
shapes = (
{
closed = 1;
nodes = (
(2247,-422,o),
(2896,226,o),
(2896,1026,cs),
(2896,1825,o),
(2247,2474,o),
(1448,2474,cs),
(649,2474,o),
(0,1825,o),
(0,1026,cs),
(0,226,o),
(649,-422,o),
(1448,-422,cs)
);
},
{
closed = 1;
nodes = (
(881,902,l),
(1448,567,l),
(2015,902,l),
(1448,106,l)
);
},
{
closed = 1;
nodes = (
(881,1008,l),
(1448,1946,l),
(2012,1008,l),
(1448,673,l)
);
}
);
width = 2896;
},
{
layerId = "5C20EF92-B63D-42A8-8878-93C2863E0093";
shapes = (
{
closed = 1;
nodes = (
(2247,-422,o),
(2896,226,o),
(2896,1026,cs),
(2896,1825,o),
(2247,2474,o),
(1448,2474,cs),
(649,2474,o),
(0,1825,o),
(0,1026,cs),
(0,226,o),
(649,-422,o),
(1448,-422,cs)
);
},
{
closed = 1;
nodes = (
(881,902,l),
(1448,567,l),
(2015,902,l),
(1448,106,l)
);
},
{
closed = 1;
nodes = (
(881,1008,l),
(1448,1946,l),
(2012,1008,l),
(1448,673,l)
);
}
);
width = 2896;
}
);
metricWidth = baseSymbol;
}
{
color = 11;
glyphname = logoKleva.small;
layers = (
{
layerId = "CD0E3B44-F66A-4791-B84C-A1128DC61275";
shapes = (
{
closed = 1;
nodes = (
(2579,-97,ls),
(2591,-97,o),
(2600,-81,o),
(2594,-69,cs),
(2263,498,ls),
(2256,510,o),
(2241,510,o),
(2232,501,cs),
(1882,121,ls),
(1873,112,o),
(1862,120,o),
(1867,130,cs),
(2602,1386,ls),
(2606,1394,o),
(2608,1406,o),
(2602,1416,cs),
(2187,2121,ls),
(2180,2132,o),
(2163,2133,o),
(2157,2121,cs),
(1303,667,ls),
(1297,658,o),
(1297,646,o),
(1303,637,cs),
(1726,-81,ls),
(1732,-90,o),
(1741,-97,o),
(1750,-97,cs)
);
},
{
closed = 1;
nodes = (
(716,-80,o),
(733,-81,o),
(739,-69,cs),
(1593,1385,ls),
(1599,1394,o),
(1599,1406,o),
(1593,1415,cs),
(1170,2133,ls),
(1164,2142,o),
(1155,2148,o),
(1146,2148,cs),
(317,2148,ls),
(305,2148,o),
(296,2133,o),
(302,2121,cs),
(634,1554,ls),
(640,1542,o),
(656,1542,o),
(664,1551,cs),
(1014,1934,ls),
(1021,1942,o),
(1034,1932,o),
(1029,1922,cs),
(294,668,ls),
(288,658,o),
(290,646,o),
(294,638,cs),
(709,-69,ls)
);
}
);
width = 2896;
},
{
layerId = "B1F27B51-9973-4381-9301-4FE46FE1CA59";
shapes = (
{
closed = 1;
nodes = (
(2579,-97,ls),
(2591,-97,o),
(2600,-81,o),
(2594,-69,cs),
(2263,498,ls),
(2256,510,o),
(2241,510,o),
(2232,501,cs),
(1882,121,ls),
(1873,112,o),
(1862,120,o),
(1867,130,cs),
(2602,1386,ls),
(2606,1394,o),
(2608,1406,o),
(2602,1416,cs),
(2187,2121,ls),
(2180,2132,o),
(2163,2133,o),
(2157,2121,cs),
(1303,667,ls),
(1297,658,o),
(1297,646,o),
(1303,637,cs),
(1726,-81,ls),
(1732,-90,o),
(1741,-97,o),
(1750,-97,cs)
);
},
{
closed = 1;
nodes = (
(716,-80,o),
(733,-81,o),
(739,-69,cs),
(1593,1385,ls),
(1599,1394,o),
(1599,1406,o),
(1593,1415,cs),
(1170,2133,ls),
(1164,2142,o),
(1155,2148,o),
(1146,2148,cs),
(317,2148,ls),
(305,2148,o),
(296,2133,o),
(302,2121,cs),
(634,1554,ls),
(640,1542,o),
(656,1542,o),
(664,1551,cs),
(1014,1934,ls),
(1021,1942,o),
(1034,1932,o),
(1029,1922,cs),
(294,668,ls),
(288,658,o),
(290,646,o),
(294,638,cs),
(709,-69,ls)
);
}
);
width = 2896;
},
{
layerId = "5C20EF92-B63D-42A8-8878-93C2863E0093";
shapes = (
{
closed = 1;
nodes = (
(2579,-97,ls),
(2591,-97,o),
(2600,-81,o),
(2594,-69,cs),
(2263,498,ls),
(2256,510,o),
(2241,510,o),
(2232,501,cs),
(1882,121,ls),
(1873,112,o),
(1862,120,o),
(1867,130,cs),
(2602,1386,ls),
(2606,1394,o),
(2608,1406,o),
(2602,1416,cs),
(2187,2121,ls),
(2180,2132,o),
(2163,2133,o),
(2157,2121,cs),
(1303,667,ls),
(1297,658,o),
(1297,646,o),
(1303,637,cs),
(1726,-81,ls),
(1732,-90,o),
(1741,-97,o),
(1750,-97,cs)
);
},
{
closed = 1;
nodes = (
(716,-80,o),
(733,-81,o),
(739,-69,cs),
(1593,1385,ls),
(1599,1394,o),
(1599,1406,o),
(1593,1415,cs),
(1170,2133,ls),
(1164,2142,o),
(1155,2148,o),
(1146,2148,cs),
(317,2148,ls),
(305,2148,o),
(296,2133,o),
(302,2121,cs),
(634,1554,ls),
(640,1542,o),
(656,1542,o),
(664,1551,cs),
(1014,1934,ls),
(1021,1942,o),
(1034,1932,o),
(1029,1922,cs),
(294,668,ls),
(288,658,o),
(290,646,o),
(294,638,cs),
(709,-69,ls)
);
}
);
width = 2896;
}
);
metricWidth = baseSymbol;
}
{
color = 11;
glyphname = logoPapyrus.small;
layers = (
{
layerId = "CD0E3B44-F66A-4791-B84C-A1128DC61275";
shapes = (
{
closed = 1;
nodes = (
(2839,1409,l),
(2700,1738,l),
(1780,1358,l),
(2160,2278,l),
(1831,2416,l),
(1448,1493,l),
(1584,1161,l),
(1916,1026,l)
);
},
{
closed = 1;
nodes = (
(1448,558,l),
(1312,890,l),
(980,1026,l),
(57,643,l),
(196,314,l),
(1116,694,l),
(736,-226,l),
(1065,-365,l)
);
},
{
closed = 1;
nodes = (
(1312,1161,l),
(1448,1493,l),
(1065,2416,l),
(736,2278,l),
(1116,1358,l),
(196,1738,l),
(57,1409,l),
(980,1026,l)
);
},
{
closed = 1;
nodes = (
(2160,-226,l),
(1780,694,l),
(2700,314,l),
(2839,643,l),
(1916,1026,l),
(1584,890,l),
(1448,558,l),
(1831,-365,l)
);
}
);
width = 2896;
},
{
layerId = "B1F27B51-9973-4381-9301-4FE46FE1CA59";
shapes = (
{
closed = 1;
nodes = (
(2839,1409,l),
(2700,1738,l),
(1780,1358,l),
(2160,2278,l),
(1831,2416,l),
(1448,1493,l),
(1584,1161,l),
(1916,1026,l)
);
},
{
closed = 1;
nodes = (
(1448,558,l),
(1312,890,l),
(980,1026,l),
(57,643,l),
(196,314,l),
(1116,694,l),
(736,-226,l),
(1065,-365,l)
);
},
{
closed = 1;
nodes = (
(1312,1161,l),
(1448,1493,l),
(1065,2416,l),
(736,2278,l),
(1116,1358,l),
(196,1738,l),
(57,1409,l),
(980,1026,l)
);
},
{
closed = 1;
nodes = (
(2160,-226,l),
(1780,694,l),
(2700,314,l),
(2839,643,l),
(1916,1026,l),
(1584,890,l),
(1448,558,l),
(1831,-365,l)
);
}
);
width = 2896;
},
{
layerId = "5C20EF92-B63D-42A8-8878-93C2863E0093";
shapes = (
{
closed = 1;
nodes = (
(2839,1409,l),
(2700,1738,l),
(1780,1358,l),
(2160,2278,l),
(1831,2416,l),
(1448,1493,l),
(1584,1161,l),
(1916,1026,l)
);
},
{
closed = 1;
nodes = (
(1448,558,l),
(1312,890,l),
(980,1026,l),
(57,643,l),
(196,314,l),
(1116,694,l),
(736,-226,l),
(1065,-365,l)
);
},
{
closed = 1;
nodes = (
(1312,1161,l),
(1448,1493,l),
(1065,2416,l),
(736,2278,l),
(1116,1358,l),
(196,1738,l),
(57,1409,l),
(980,1026,l)
);
},
{
closed = 1;
nodes = (
(2160,-226,l),
(1780,694,l),
(2700,314,l),
(2839,643,l),
(1916,1026,l),
(1584,890,l),
(1448,558,l),
(1831,-365,l)
);
}
);
width = 2896;
}
);
metricWidth = baseSymbol;
}
{
color = 11;
glyphname = logoUnagi0.small;
layers = (
{
layerId = "CD0E3B44-F66A-4791-B84C-A1128DC61275";
shapes = (
{
closed = 1;
nodes = (
(2287,-416,o),
(2890,187,o),
(2890,1023,cs),
(2890,1861,o),
(2287,2465,o),
(1448,2465,cs),
(609,2465,o),
(6,1861,o),
(6,1023,cs),
(6,187,o),
(609,-416,o),
(1448,-416,cs)
);
},
{
closed = 1;
nodes = (
(640,-368,o),
(57,217,o),
(57,1023,cs),
(57,1831,o),
(640,2416,o),
(1448,2416,cs),
(2256,2416,o),
(2839,1831,o),
(2839,1023,cs),
(2839,217,o),
(2256,-368,o),
(1448,-368,cs)
);
},
{
closed = 1;
nodes = (
(938,51,o),
(513,477,o),
(513,1005,cs),
(513,1532,o),
(938,1961,o),
(1466,1961,cs),
(1994,1961,o),
(2422,1532,o),
(2422,1005,cs),
(2422,477,o),
(1994,51,o),
(1466,51,cs)
);
},
{
closed = 1;
nodes = (
(2812,546,o),
(2640,1228,o),
(2232,1638,cs),
(2160,1713,o),
(2085,1777,o),
(2009,1828,cs),
(1626,2097,o),
(1095,2057,o),
(754,1716,cs),
(543,1508,o),
(449,1225,o),
(471,950,cs),
(486,709,o),
(597,462,o),
(833,235,cs),
(1231,-163,o),
(1925,-344,o),
(2368,100,cs)
);
}
);
width = 2896;
},
{
layerId = "B1F27B51-9973-4381-9301-4FE46FE1CA59";
shapes = (
{
closed = 1;
nodes = (
(2287,-416,o),
(2890,187,o),
(2890,1023,cs),
(2890,1861,o),
(2287,2465,o),
(1448,2465,cs),
(609,2465,o),
(6,1861,o),
(6,1023,cs),
(6,187,o),
(609,-416,o),
(1448,-416,cs)
);
},
{
closed = 1;
nodes = (
(640,-368,o),
(57,217,o),
(57,1023,cs),
(57,1831,o),
(640,2416,o),
(1448,2416,cs),
(2256,2416,o),
(2839,1831,o),
(2839,1023,cs),
(2839,217,o),
(2256,-368,o),
(1448,-368,cs)
);
},
{
closed = 1;
nodes = (
(938,51,o),
(513,477,o),
(513,1005,cs),
(513,1532,o),
(938,1961,o),
(1466,1961,cs),
(1994,1961,o),
(2422,1532,o),
(2422,1005,cs),
(2422,477,o),
(1994,51,o),
(1466,51,cs)
);
},
{
closed = 1;
nodes = (
(2812,546,o),
(2640,1228,o),
(2232,1638,cs),
(2160,1713,o),
(2085,1777,o),
(2009,1828,cs),
(1626,2097,o),
(1095,2057,o),
(754,1716,cs),
(543,1508,o),
(449,1225,o),
(471,950,cs),
(486,709,o),
(597,462,o),
(833,235,cs),
(1231,-163,o),
(1925,-344,o),
(2368,100,cs)
);
}
);
width = 2896;
},
{
layerId = "5C20EF92-B63D-42A8-8878-93C2863E0093";
shapes = (
{
closed = 1;
nodes = (
(2287,-416,o),
(2890,187,o),
(2890,1023,cs),
(2890,1861,o),
(2287,2465,o),
(1448,2465,cs),
(609,2465,o),
(6,1861,o),
(6,1023,cs),
(6,187,o),
(609,-416,o),
(1448,-416,cs)
);
},
{
closed = 1;
nodes = (
(640,-368,o),
(57,217,o),
(57,1023,cs),
(57,1831,o),
(640,2416,o),
(1448,2416,cs),
(2256,2416,o),
(2839,1831,o),
(2839,1023,cs),
(2839,217,o),
(2256,-368,o),
(1448,-368,cs)
);
},
{
closed = 1;
nodes = (
(938,51,o),
(513,477,o),
(513,1005,cs),
(513,1532,o),
(938,1961,o),
(1466,1961,cs),
(1994,1961,o),
(2422,1532,o),
(2422,1005,cs),
(2422,477,o),
(1994,51,o),
(1466,51,cs)
);
},
{
closed = 1;
nodes = (
(2812,546,o),
(2640,1228,o),
(2232,1638,cs),
(2160,1713,o),
(2085,1777,o),
(2009,1828,cs),
(1626,2097,o),
(1095,2057,o),
(754,1716,cs),
(543,1508,o),
(449,1225,o),
(471,950,cs),
(486,709,o),
(597,462,o),
(833,235,cs),
(1231,-163,o),
(1925,-344,o),
(2368,100,cs)
);
}
);
width = 2896;
}
);
metricWidth = baseSymbol;
}
{
color = 11;
glyphname = logoUnagix.small;
layers = (
{
layerId = "CD0E3B44-F66A-4791-B84C-A1128DC61275";
shapes = (
{
closed = 1;
nodes = (
(2003,1113,o),
(2489,1216,o),
(2769,1373,cs),
(2775,1376,o),
(2775,1379,o),
(2766,1379,cs),
(2760,1379,o),
(2709,1370,o),
(2646,1367,cs),
(2567,1367,o),
(2474,1370,o),
(2344,1373,cs),
(2151,1382,o),
(1873,1391,o),
(1448,1391,cs),
(1023,1391,o),
(745,1382,o),
(552,1373,cs),
(422,1370,o),
(329,1367,o),
(250,1367,cs),
(187,1370,o),
(136,1379,o),
(130,1379,cs),
(121,1379,o),
(121,1373,o),
(127,1370,cs),
(404,1216,o),
(893,1113,o),
(1448,1113,cs)
);
},
{
closed = 1;
nodes = (
(1873,664,o),
(2151,673,o),
(2344,682,cs),
(2474,688,o),
(2567,691,o),
(2646,688,cs),
(2709,688,o),
(2760,676,o),
(2766,676,cs),
(2775,676,o),
(2775,679,o),
(2769,682,cs),
(2489,839,o),
(2003,941,o),
(1448,941,cs),
(893,941,o),
(407,842,o),
(127,685,cs),
(121,682,o),
(121,676,o),
(130,676,cs),
(136,676,o),
(187,688,o),
(250,688,cs),
(329,691,o),
(422,688,o),
(552,682,cs),
(745,673,o),
(1023,664,o),
(1448,664,cs)
);
}
);
width = 2896;
},
{
layerId = "B1F27B51-9973-4381-9301-4FE46FE1CA59";
shapes = (
{
closed = 1;
nodes = (
(2003,1113,o),
(2489,1216,o),
(2769,1373,cs),
(2775,1376,o),
(2775,1379,o),
(2766,1379,cs),
(2760,1379,o),
(2709,1370,o),
(2646,1367,cs),
(2567,1367,o),
(2474,1370,o),
(2344,1373,cs),
(2151,1382,o),
(1873,1391,o),
(1448,1391,cs),
(1023,1391,o),
(745,1382,o),
(552,1373,cs),
(422,1370,o),
(329,1367,o),
(250,1367,cs),
(187,1370,o),
(136,1379,o),
(130,1379,cs),
(121,1379,o),
(121,1373,o),
(127,1370,cs),
(404,1216,o),
(893,1113,o),
(1448,1113,cs)
);
},
{
closed = 1;
nodes = (
(1873,664,o),
(2151,673,o),
(2344,682,cs),
(2474,688,o),
(2567,691,o),
(2646,688,cs),
(2709,688,o),
(2760,676,o),
(2766,676,cs),
(2775,676,o),
(2775,679,o),
(2769,682,cs),
(2489,839,o),
(2003,941,o),
(1448,941,cs),
(893,941,o),
(407,842,o),
(127,685,cs),
(121,682,o),
(121,676,o),
(130,676,cs),
(136,676,o),
(187,688,o),
(250,688,cs),
(329,691,o),
(422,688,o),
(552,682,cs),
(745,673,o),
(1023,664,o),
(1448,664,cs)
);
}
);
width = 2896;
},
{
layerId = "5C20EF92-B63D-42A8-8878-93C2863E0093";
shapes = (
{
closed = 1;
nodes = (
(2003,1113,o),
(2489,1216,o),
(2769,1373,cs),
(2775,1376,o),
(2775,1379,o),
(2766,1379,cs),
(2760,1379,o),
(2709,1370,o),
(2646,1367,cs),
(2567,1367,o),
(2474,1370,o),
(2344,1373,cs),
(2151,1382,o),
(1873,1391,o),
(1448,1391,cs),
(1023,1391,o),
(745,1382,o),
(552,1373,cs),
(422,1370,o),
(329,1367,o),
(250,1367,cs),
(187,1370,o),
(136,1379,o),
(130,1379,cs),
(121,1379,o),
(121,1373,o),
(127,1370,cs),
(404,1216,o),
(893,1113,o),
(1448,1113,cs)
);
},
{
closed = 1;
nodes = (
(1873,664,o),
(2151,673,o),
(2344,682,cs),
(2474,688,o),
(2567,691,o),
(2646,688,cs),
(2709,688,o),
(2760,676,o),
(2766,676,cs),
(2775,676,o),
(2775,679,o),
(2769,682,cs),
(2489,839,o),
(2003,941,o),
(1448,941,cs),
(893,941,o),
(407,842,o),
(127,685,cs),
(121,682,o),
(121,676,o),
(130,676,cs),
(136,676,o),
(187,688,o),
(250,688,cs),
(329,691,o),
(422,688,o),
(552,682,cs),
(745,673,o),
(1023,664,o),
(1448,664,cs)
);
}
);
width = 2896;
}
);
metricWidth = baseSymbol;
}
{
color = 11;
glyphname = logoWemixdollar.small;
layers = (
{
layerId = "CD0E3B44-F66A-4791-B84C-A1128DC61275";
shapes = (
{
closed = 1;
nodes = (
(2247,-422,o),
(2896,226,o),
(2896,1026,cs),
(2896,1825,o),
(2247,2474,o),
(1448,2474,cs),
(649,2474,o),
(0,1825,o),
(0,1026,cs),
(0,226,o),
(649,-422,o),
(1448,-422,cs)
);
},
{
closed = 1;
nodes = (
(1421,-220,o),
(1394,-220,o),
(1367,-217,c),
(1367,223,l),
(1140,244,o),
(974,353,o),
(869,543,c),
(1122,742,l),
(1189,621,o),
(1321,401,o),
(1385,302,c),
(1514,299,o),
(1632,422,o),
(1629,552,cs),
(1629,649,o),
(1557,727,o),
(1481,784,cs),
(1321,905,o),
(1086,1002,o),
(977,1177,cs),
(896,1300,o),
(899,1481,o),
(986,1605,cs),
(1065,1726,o),
(1219,1801,o),
(1367,1819,c),
(1367,2109,l),
(805,2066,o),
(362,1599,o),
(362,1026,cs),
(362,510,o),
(724,75,o),
(1207,-33,c),
(1207,-199,l),
(634,-84,o),
(202,419,o),
(202,1026,cs),
(202,1713,o),
(760,2272,o),
(1448,2272,cs),
(1526,2272,l),
(1526,1831,l),
(1735,1825,o),
(1870,1759,o),
(2003,1614,c),
(2003,1611,l),
(1747,1409,l),
(1668,1529,o),
(1593,1644,o),
(1514,1750,c),
(1388,1753,o),
(1300,1674,o),
(1303,1551,cs),
(1306,1448,o),
(1376,1367,o),
(1454,1306,cs),
(1617,1180,o),
(1861,1068,o),
(1967,890,cs),
(2048,763,o),
(2045,591,o),
(1967,462,cs),
(1879,317,o),
(1707,238,o),
(1529,223,c),
(1529,-57,l),
(2091,-15,o),
(2534,453,o),
(2534,1026,cs),
(2534,1542,o),
(2172,1976,o),
(1689,2085,c),
(1689,2250,l),
(2263,2136,o),
(2694,1632,o),
(2694,1026,cs),
(2694,338,o),
(2136,-220,o),
(1448,-220,cs)
);
}
);
width = 2896;
},
{
layerId = "B1F27B51-9973-4381-9301-4FE46FE1CA59";
shapes = (
{
closed = 1;
nodes = (
(2247,-422,o),
(2896,226,o),
(2896,1026,cs),
(2896,1825,o),
(2247,2474,o),
(1448,2474,cs),
(649,2474,o),
(0,1825,o),
(0,1026,cs),
(0,226,o),
(649,-422,o),
(1448,-422,cs)
);
},
{
closed = 1;
nodes = (
(1421,-220,o),
(1394,-220,o),
(1367,-217,c),
(1367,223,l),
(1140,244,o),
(974,353,o),
(869,543,c),
(1122,742,l),
(1189,621,o),
(1321,401,o),
(1385,302,c),
(1514,299,o),
(1632,422,o),
(1629,552,cs),
(1629,649,o),
(1557,727,o),
(1481,784,cs),
(1321,905,o),
(1086,1002,o),
(977,1177,cs),
(896,1300,o),
(899,1481,o),
(986,1605,cs),
(1065,1726,o),
(1219,1801,o),
(1367,1819,c),
(1367,2109,l),
(805,2066,o),
(362,1599,o),
(362,1026,cs),
(362,510,o),
(724,75,o),
(1207,-33,c),
(1207,-199,l),
(634,-84,o),
(202,419,o),
(202,1026,cs),
(202,1713,o),
(760,2272,o),
(1448,2272,cs),
(1526,2272,l),
(1526,1831,l),
(1735,1825,o),
(1870,1759,o),
(2003,1614,c),
(2003,1611,l),
(1747,1409,l),
(1668,1529,o),
(1593,1644,o),
(1514,1750,c),
(1388,1753,o),
(1300,1674,o),
(1303,1551,cs),
(1306,1448,o),
(1376,1367,o),
(1454,1306,cs),
(1617,1180,o),
(1861,1068,o),
(1967,890,cs),
(2048,763,o),
(2045,591,o),
(1967,462,cs),
(1879,317,o),
(1707,238,o),
(1529,223,c),
(1529,-57,l),
(2091,-15,o),
(2534,453,o),
(2534,1026,cs),
(2534,1542,o),
(2172,1976,o),
(1689,2085,c),
(1689,2250,l),
(2263,2136,o),
(2694,1632,o),
(2694,1026,cs),
(2694,338,o),
(2136,-220,o),
(1448,-220,cs)
);
}
);
width = 2896;
},
{
layerId = "5C20EF92-B63D-42A8-8878-93C2863E0093";
shapes = (
{
closed = 1;
nodes = (
(2247,-422,o),
(2896,226,o),
(2896,1026,cs),
(2896,1825,o),
(2247,2474,o),
(1448,2474,cs),
(649,2474,o),
(0,1825,o),
(0,1026,cs),
(0,226,o),
(649,-422,o),
(1448,-422,cs)
);
},
{
closed = 1;
nodes = (
(1421,-220,o),
(1394,-220,o),
(1367,-217,c),
(1367,223,l),
(1140,244,o),
(974,353,o),
(869,543,c),
(1122,742,l),
(1189,621,o),
(1321,401,o),
(1385,302,c),
(1514,299,o),
(1632,422,o),
(1629,552,cs),
(1629,649,o),
(1557,727,o),
(1481,784,cs),
(1321,905,o),
(1086,1002,o),
(977,1177,cs),
(896,1300,o),
(899,1481,o),
(986,1605,cs),
(1065,1726,o),
(1219,1801,o),
(1367,1819,c),
(1367,2109,l),
(805,2066,o),
(362,1599,o),
(362,1026,cs),
(362,510,o),
(724,75,o),
(1207,-33,c),
(1207,-199,l),
(634,-84,o),
(202,419,o),
(202,1026,cs),
(202,1713,o),
(760,2272,o),
(1448,2272,cs),
(1526,2272,l),
(1526,1831,l),
(1735,1825,o),
(1870,1759,o),
(2003,1614,c),
(2003,1611,l),
(1747,1409,l),
(1668,1529,o),
(1593,1644,o),
(1514,1750,c),
(1388,1753,o),
(1300,1674,o),
(1303,1551,cs),
(1306,1448,o),
(1376,1367,o),
(1454,1306,cs),
(1617,1180,o),
(1861,1068,o),
(1967,890,cs),
(2048,763,o),
(2045,591,o),
(1967,462,cs),
(1879,317,o),
(1707,238,o),
(1529,223,c),
(1529,-57,l),
(2091,-15,o),
(2534,453,o),
(2534,1026,cs),
(2534,1542,o),
(2172,1976,o),
(1689,2085,c),
(1689,2250,l),
(2263,2136,o),
(2694,1632,o),
(2694,1026,cs),
(2694,338,o),
(2136,-220,o),
(1448,-220,cs)
);
}
);
width = 2896;
}
);
metricWidth = baseSymbol;
}
{
color = 8;
glyphname = o.ss20;
layers = (
{
background = {
shapes = (
{
attr = {
strokeHeight = 404;
strokeWidth = 564;
};
closed = 1;
nodes = (
(1306,172,o),
(1506,370,o),
(1506,686,cs),
(1506,842,ls),
(1506,1158,o),
(1306,1356,o),
(990,1356,cs),
(676,1356,o),
(478,1158,o),
(478,842,cs),
(478,686,ls),
(478,370,o),
(676,172,o),
(990,172,cs)
);
}
);
};
guides = (
{
pos = (148,2860);
},
{
pos = (920,768);
},
{
orientation = center;
angle = 90;
pos = (-1608,768);
}
);
layerId = "5C20EF92-B63D-42A8-8878-93C2863E0093";
shapes = (
{
closed = 1;
nodes = (
(1410,-30,o),
(1788,215,o),
(1788,686,cs),
(1788,842,ls),
(1788,1313,o),
(1410,1558,o),
(990,1558,cs),
(576,1558,o),
(196,1316,o),
(196,842,cs),
(196,686,ls),
(196,212,o),
(576,-30,o),
(990,-30,cs)
);
},
{
closed = 1;
nodes = (
(846,374,o),
(760,460,o),
(760,686,cs),
(760,842,ls),
(760,1068,o),
(846,1154,o),
(990,1154,cs),
(1137,1154,o),
(1224,1067,o),
(1224,842,cs),
(1224,686,ls),
(1224,461,o),
(1137,374,o),
(990,374,cs)
);
}
);
width = 1984;
},
{
background = {
shapes = (
{
attr = {
strokeHeight = 64;
strokeWidth = 64;
};
closed = 1;
nodes = (
(1132,0,o),
(1340,240,o),
(1340,620,cs),
(1340,908,ls),
(1340,1288,o),
(1132,1528,o),
(800,1528,cs),
(468,1528,o),
(260,1288,o),
(260,908,cs),
(260,620,ls),
(260,240,o),
(468,0,o),
(800,0,cs)
);
}
);
};
layerId = "B1F27B51-9973-4381-9301-4FE46FE1CA59";
shapes = (
{
closed = 1;
nodes = (
(1151,-32,o),
(1372,224,o),
(1372,620,cs),
(1372,908,ls),
(1372,1304,o),
(1151,1560,o),
(800,1560,cs),
(449,1560,o),
(228,1304,o),
(228,908,cs),
(228,620,ls),
(228,224,o),
(449,-32,o),
(800,-32,cs)
);
},
{
closed = 1;
nodes = (
(487,32,o),
(292,256,o),
(292,620,cs),
(292,908,ls),
(292,1272,o),
(487,1496,o),
(800,1496,cs),
(1113,1496,o),
(1308,1272,o),
(1308,908,cs),
(1308,620,ls),
(1308,256,o),
(1113,32,o),
(800,32,cs)
);
}
);
width = 1600;
},
{
background = {
shapes = (
{
attr = {
strokeHeight = 216;
strokeWidth = 244;
};
closed = 1;
nodes = (
(1226,76,o),
(1438,308,o),
(1438,678,cs),
(1438,846,ls),
(1438,1216,o),
(1226,1448,o),
(888,1448,cs),
(552,1448,o),
(342,1216,o),
(342,846,cs),
(342,678,ls),
(342,308,o),
(552,76,o),
(888,76,cs)
);
}
);
};
layerId = "CD0E3B44-F66A-4791-B84C-A1128DC61275";
shapes = (
{
closed = 1;
nodes = (
(1285,-32,o),
(1560,238,o),
(1560,678,cs),
(1560,846,ls),
(1560,1286,o),
(1285,1556,o),
(888,1556,cs),
(494,1556,o),
(220,1287,o),
(220,846,cs),
(220,678,ls),
(220,237,o),
(494,-32,o),
(888,-32,cs)
);
},
{
closed = 1;
nodes = (
(622,184,o),
(464,366,o),
(464,678,cs),
(464,846,ls),
(464,1158,o),
(622,1340,o),
(888,1340,cs),
(1157,1340,o),
(1316,1157,o),
(1316,846,cs),
(1316,678,ls),
(1316,367,o),
(1157,184,o),
(888,184,cs)
);
}
);
vertWidth = 0;
width = 1780;
}
);
userData = {
RMXScaler = {
source = o;
};
com.typemytype.robofont.guideline.magnetic.k4vPhVkDP6 = 5;
"interface.width-adjustments" = (
-16
);
};
}
